<?xml version="1.0" encoding="UTF-8" standalone="no" ?>
<!DOCTYPE svg PUBLIC "-//W3C//DTD SVG 1.1//EN" "http://www.w3.org/Graphics/SVG/1.1/DTD/svg11.dtd">
<svg xmlns="http://www.w3.org/2000/svg" xmlns:xlink="http://www.w3.org/1999/xlink" version="1.1" width="500" height="500" viewBox="0 0 500 500" xml:space="preserve">
<desc>Created with Fabric.js 5.3.0</desc>
<defs>
</defs>
<g transform="matrix(0.3729738951 -0.2810559892 0.2678319995 0.3554250679 250 228.8453778641)" id="LRZr1XRhHsTx44QqEcARp"  >
<path style="stroke: rgb(124,74,95); stroke-width: 0; stroke-dasharray: none; stroke-linecap: butt; stroke-dashoffset: 0; stroke-linejoin: miter; stroke-miterlimit: 4; fill: none; fill-rule: nonzero; opacity: 1;"  transform=" translate(0, 0)" d="M -450 -253.5 L 450 -253.5 L 450 253.5 L -450 253.5 z" stroke-linecap="round" />
</g>
<g transform="matrix(1 0 0 1 118.5685178696 299.3037158873)" id="w_9GBTWC-mNpYgz0QQDkE"  >
<path style="stroke: rgb(252,242,232); stroke-width: 0; stroke-dasharray: none; stroke-linecap: butt; stroke-dashoffset: 0; stroke-linejoin: miter; stroke-miterlimit: 4; fill: rgb(29,28,20); fill-rule: nonzero; opacity: 1;"  transform=" translate(-3.1990538368, -3.1990538368)" d="M 3.19905 0 C 4.96493 0 6.3981 1.43318 6.3981 3.19905 C 6.3981 4.96493 4.96492 6.3981 3.19905 6.3981 C 1.4331700000000003 6.3981 0 4.96492 0 3.19905 C 0 1.4331700000000003 1.43318 0 3.19905 0 z" stroke-linecap="round" />
</g>
<g transform="matrix(0.8350686234 0 0 0.833340829 131.0301449589 290.4788093332)" id="oizOlSXMh6X0nVQGayoHB"  >
<path style="stroke: rgb(252,242,232); stroke-width: 0; stroke-dasharray: none; stroke-linecap: butt; stroke-dashoffset: 0; stroke-linejoin: miter; stroke-miterlimit: 4; fill: rgb(29,28,20); fill-rule: nonzero; opacity: 1;"  transform=" translate(0, 0)" d="M 0 -3.19905 C 1.76588 -3.19905 3.19905 -1.7658700000000003 3.19905 0 C 3.19905 1.76588 1.7658700000000003 3.19905 0 3.19905 C -1.76588 3.19905 -3.19905 1.7658700000000003 -3.19905 0 C -3.19905 -1.76588 -1.7658700000000003 -3.19905 0 -3.19905 z" stroke-linecap="round" />
</g>
<g transform="matrix(1 0 0 1 136.9006270248 325.6208316163)" id="SoaTk8sKW6RXRoemFCi9o"  >
<path style="stroke: rgb(252,242,232); stroke-width: 0; stroke-dasharray: none; stroke-linecap: butt; stroke-dashoffset: 0; stroke-linejoin: miter; stroke-miterlimit: 4; fill: rgb(16,12,7); fill-rule: nonzero; opacity: 1;"  transform=" translate(0, 0)" d="M 0 -3.19905 C 1.76588 -3.19905 3.19905 -1.7658700000000003 3.19905 0 C 3.19905 1.76588 1.7658700000000003 3.19905 0 3.19905 C -1.76588 3.19905 -3.19905 1.7658700000000003 -3.19905 0 C -3.19905 -1.76588 -1.7658700000000003 -3.19905 0 -3.19905 z" stroke-linecap="round" />
</g>
<g transform="matrix(1 0 0 1 148.7312906404 312.8546667402)" id="xAG6y7eeHh-JPUwpAJop0"  >
<path style="stroke: rgb(252,242,232); stroke-width: 0; stroke-dasharray: none; stroke-linecap: butt; stroke-dashoffset: 0; stroke-linejoin: miter; stroke-miterlimit: 4; fill: rgb(16,12,7); fill-rule: nonzero; opacity: 1;"  transform=" translate(0, 0)" d="M 0 -3.19905 C 1.76588 -3.19905 3.19905 -1.7658700000000003 3.19905 0 C 3.19905 1.76588 1.7658700000000003 3.19905 0 3.19905 C -1.76588 3.19905 -3.19905 1.7658700000000003 -3.19905 0 C -3.19905 -1.76588 -1.7658700000000003 -3.19905 0 -3.19905 z" stroke-linecap="round" />
</g>
<g transform="matrix(1 0 0 1 183.55494659 296.2073502481)" id="jN8WvmGY0WuOPIE6Z-guu"  >
<path style="stroke: rgb(252,242,232); stroke-width: 0; stroke-dasharray: none; stroke-linecap: butt; stroke-dashoffset: 0; stroke-linejoin: miter; stroke-miterlimit: 4; fill: rgb(252,242,232); fill-rule: nonzero; opacity: 1;"  transform=" translate(0, 0)" d="M -16.22313 34.18864 C -15.247330000000002 36.035 -13.350320000000002 37.21028 -11.2626 37.26189 C -9.174880000000002 37.3135 -7.222110000000001 36.2334 -6.156270000000001 34.43752 L 26.416380000000004 -20.44547 L 26.416380000000004 -20.44547 C 27.235750000000003 -21.83265 27.478160000000003 -23.48593 27.091490000000004 -25.04994 C 26.733800000000002 -26.49674 26.479570000000002 -27.28077 26.479570000000002 -29.52452 C 26.479570000000002 -31.32904 27.308480000000003 -33.67422 28.118900000000004 -35.57884 L 28.118900000000004 -35.57884 C 28.340780000000002 -36.10029 28.171290000000003 -36.70589 27.710960000000004 -37.03641 C 27.250630000000005 -37.366929999999996 26.622630000000004 -37.33394 26.199470000000005 -36.95702 L -28.215649999999997 11.49689 z" stroke-linecap="round" />
</g>
<g transform="matrix(1.3345562364 0 0 1.3729040939 152.944041599 293.1447109399)" id="bhW4fFxBUAvsvfk4Ki3F8"  >
<path style="stroke: rgb(0,0,0); stroke-width: 0; stroke-dasharray: none; stroke-linecap: butt; stroke-dashoffset: 0; stroke-linejoin: miter; stroke-miterlimit: 4; fill: rgb(252,237,218); fill-rule: nonzero; opacity: 1;"  transform=" translate(0, 0)" d="M -0.74086 -13.54924 C -1.48559 -14.450759999999999 -2.8288100000000003 -14.621799999999999 -3.78729 -13.93717 L -12.441220000000001 -7.75579 L -12.441220000000001 -7.75579 C -13.53049 -6.97774 -13.77204 -5.49213 -12.982700000000001 -4.425470000000001 L 0.04248999999999903 13.17614 L 0.04248999999999903 13.17614 C 0.518619999999999 13.819560000000001 1.249959999999999 14.24001 2.059359999999999 14.335650000000001 C 2.8687699999999987 14.43129 3.682429999999999 14.1934 4.3032699999999995 13.6796 L 12.34071 7.027920000000001 L 12.34071 7.027920000000001 C 13.636239999999999 5.955760000000001 13.81943 4.076370000000001 12.7541 2.786760000000001 z" stroke-linecap="round" />
</g>
<g transform="matrix(1.3345562364 0 0 1.3729040939 188.835148759 265.3606200308)" id="2HYf7IWvslfScIu1YVVAB"  >
<path style="stroke: rgb(0,0,0); stroke-width: 0; stroke-dasharray: none; stroke-linecap: butt; stroke-dashoffset: 0; stroke-linejoin: miter; stroke-miterlimit: 4; fill: rgb(252,237,218); fill-rule: nonzero; opacity: 1;"  transform=" translate(0.0000029986, 0.0000010763)" d="M -0.74086 -13.54924 C -1.48559 -14.450759999999999 -2.8288100000000003 -14.621799999999999 -3.78729 -13.93717 L -12.441220000000001 -7.75579 L -12.441220000000001 -7.75579 C -13.53049 -6.97774 -13.77204 -5.49213 -12.982700000000001 -4.425470000000001 L 0.04248999999999903 13.17614 L 0.04248999999999903 13.17614 C 0.518619999999999 13.819560000000001 1.249959999999999 14.24001 2.059359999999999 14.335650000000001 C 2.8687699999999987 14.43129 3.682429999999999 14.1934 4.3032699999999995 13.6796 L 12.34071 7.027920000000001 L 12.34071 7.027920000000001 C 13.636239999999999 5.955760000000001 13.81943 4.076370000000001 12.7541 2.786760000000001 z" stroke-linecap="round" />
</g>
<g transform="matrix(1 0 0 1 152.6821317063 299.3037158873)" id="2sdjrf2_S5o8HWE6ZJSSf"  >
<radialGradient id="SVGID_1228" gradientUnits="userSpaceOnUse" gradientTransform="matrix(1 0 0 1 -82.4894766375 -85.346446444)"  cx="82.48947663749726" cy="85.34644644396118" r="83.98947663749726" fx="82.48947663749726" fy="85.34644644396118">
<stop offset="0%" style="stop-color:#FFAC00;stop-opacity: 1"/>
<stop offset="50.184992012538345%" style="stop-color:#FF9200;stop-opacity: 1"/>
<stop offset="100%" style="stop-color:#620D0D;stop-opacity: 1"/>
</radialGradient>
<path style="stroke: rgb(179,83,79); stroke-width: 4; stroke-dasharray: none; stroke-linecap: butt; stroke-dashoffset: 0; stroke-linejoin: miter; stroke-miterlimit: 4; fill: url(#SVGID_1228); fill-rule: nonzero; opacity: 1;"  transform=" translate(0, 0)" d="M 64.15284 -42.17393 L 62.322109999999995 -39.35161 L 62.322109999999995 -39.35161 C 60.48302999999999 -36.51643 59.93758 -33.0325 60.822129999999994 -29.7709 C 61.70667999999999 -26.5093 63.93760999999999 -23.77833 66.95714 -22.26081 C 68.09291999999999 -21.689999999999998 68.93992 -21.355529999999998 70.48731 -20.71954 C 73.00706 -19.683889999999998 75.49629999999999 -19.38532 77.94023999999999 -19.796349999999997 L 77.94023999999999 -19.796349999999997 C 79.63519999999998 -20.081409999999998 81.31706999999999 -19.223839999999996 82.08182 -17.684579999999997 C 82.84657 -16.145329999999998 82.51405999999999 -14.286949999999997 81.26303999999999 -13.108359999999998 L 80.20857999999998 -12.114699999999997 L 80.20857999999998 -12.114699999999997 C 74.17842999999998 -6.432259999999998 66.94034999999998 -2.1883599999999976 59.036799999999985 0.29895000000000316 L 55.10102999999999 1.5375700000000032 L 48.569709999999986 3.218350000000003 L 48.569709999999986 3.218350000000003 C 43.27395999999999 4.608660000000003 39.17626999999999 8.805650000000004 37.91312999999999 14.133170000000003 C 34.26108999999999 29.536360000000002 34.11226999999999 42.10531 21.244519999999987 59.1144 C 11.612719999999987 71.84609 1.5773699999999877 76.57962 -10.737360000000013 82.84913 C -16.507560000000012 85.78692000000001 -22.17220000000001 85.63257 -28.604500000000012 84.88995 C -36.52455000000001 83.97557 -46.558290000000014 81.31601 -51.90404000000001 75.40109 C -51.90404000000001 75.40109 -57.992810000000006 68.69315999999999 -60.991760000000006 65.38925 L -60.991760000000006 65.38925 C -67.85264000000001 57.83070000000001 -73.45374000000001 49.21831 -77.58068 39.88174000000001 L -77.58068 39.88174000000001 L -77.58068 39.88174000000001 C -81.24883 31.58311000000001 -82.90116 22.534230000000008 -82.40261 13.474760000000007 L -82.02606 6.632270000000007 L -82.02606 6.632270000000007 C -81.83998 3.250950000000007 -81.20317 -0.09036999999999296 -80.13251 -3.303089999999992 L -80.01738 -3.6485699999999923 L -80.01738 -3.6485699999999923 C -78.51429 -8.158879999999993 -76.1362 -12.328359999999993 -73.01929 -15.918219999999993 L -62.26809 -28.300779999999992 L -62.26809 -28.300779999999992 C -59.90755 -31.019509999999993 -57.086890000000004 -33.30152999999999 -53.935230000000004 -35.04240999999999 L -53.935230000000004 -35.04240999999999 L -53.935230000000004 -35.04240999999999 C -44.04599 -40.50488999999999 -33.13895000000001 -43.87505999999999 -21.891990000000007 -44.94345999999999 L -21.402410000000007 -44.989969999999985 L -21.402410000000007 -44.989969999999985 C -20.907480000000007 -45.03698999999999 -20.408140000000007 -44.99807999999999 -19.926460000000006 -44.87497999999999 L -19.382650000000005 -44.73598999999999 L -19.382650000000005 -44.73598999999999 C -6.318760000000005 -41.397159999999985 7.1624699999999955 -48.43586999999999 11.889939999999996 -61.06377999999999 L 15.178639999999996 -69.84848 L 15.178639999999996 -69.84848 C 15.568489999999995 -70.88985 16.114949999999997 -71.86564999999999 16.799129999999995 -72.74219 L 18.098089999999996 -74.40634 L 18.098089999999996 -74.40634 C 25.496509999999994 -83.88478 38.05723999999999 -87.68487 49.46912999999999 -83.89723000000001 L 50.42059999999999 -83.58144 L 64.15285 -73.46239 L 74.68106 -58.46364 L 74.68106 -58.46364 C 75.72771 -56.97255 75.60798 -54.95666 74.39218 -53.59995 z" stroke-linecap="round" />
</g>
<g transform="matrix(1 0 0 1 152.6821317063 291.6955244005)" id="jI6tmPVgRftbM_-lyLZso"  >
<path style="stroke: rgb(0,0,0); stroke-width: 2; stroke-dasharray: none; stroke-linecap: butt; stroke-dashoffset: 0; stroke-linejoin: miter; stroke-miterlimit: 4; fill: rgb(13,9,7); fill-rule: nonzero; opacity: 1;"  transform=" translate(0, 0)" d="M -0.67541 -13.47199 C -1.45697 -14.41808 -2.8371299999999997 -14.59859 -3.8357099999999997 -13.88532 L -12.306709999999999 -7.8346 L -12.306709999999999 -7.8346 C -12.85802 -7.4408 -13.2281 -6.8421 -13.33386 -6.1729 C -13.43962 -5.503690000000001 -13.2722 -4.82005 -12.86919 -4.275440000000001 L -0.03049000000000035 13.07416 L -0.03049000000000035 13.07416 C 0.47213999999999967 13.75339 1.2319999999999995 14.196019999999999 2.0707899999999997 14.298169999999999 C 2.9095799999999996 14.400329999999999 3.7534599999999996 14.15302 4.40443 13.614289999999999 L 12.19684 7.165399999999999 L 12.19684 7.165399999999999 C 13.56704 6.031439999999999 13.75943 4.001779999999999 12.62669 2.630559999999999 z" stroke-linecap="round" />
</g>
<g transform="matrix(1 0 0 1 187.8264962912 263.9114334914)" id="D6WlACHH8t-iBTNfbv_0P"  >
<path style="stroke: rgb(0,0,0); stroke-width: 2; stroke-dasharray: none; stroke-linecap: butt; stroke-dashoffset: 0; stroke-linejoin: miter; stroke-miterlimit: 4; fill: rgb(13,9,7); fill-rule: nonzero; opacity: 1;"  transform=" translate(0.0000059435, -0.0000025229)" d="M -0.67541 -13.47199 C -1.45697 -14.41808 -2.8371299999999997 -14.59859 -3.8357099999999997 -13.88532 L -12.306709999999999 -7.8346 L -12.306709999999999 -7.8346 C -12.85802 -7.4408 -13.2281 -6.8421 -13.33386 -6.1729 C -13.43962 -5.503690000000001 -13.2722 -4.82005 -12.86919 -4.275440000000001 L -0.03049000000000035 13.07416 L -0.03049000000000035 13.07416 C 0.47213999999999967 13.75339 1.2319999999999995 14.196019999999999 2.0707899999999997 14.298169999999999 C 2.9095799999999996 14.400329999999999 3.7534599999999996 14.15302 4.40443 13.614289999999999 L 12.19684 7.165399999999999 L 12.19684 7.165399999999999 C 13.56704 6.031439999999999 13.75943 4.001779999999999 12.62669 2.630559999999999 z" stroke-linecap="round" />
</g>
<g transform="matrix(1 0 0 1 186.0908226025 228.8453778641)" id="OMfI0Mc6xpQfwybj0O3Hc"  >
<path style="stroke: rgb(206,127,236); stroke-width: 0; stroke-dasharray: none; stroke-linecap: butt; stroke-dashoffset: 0; stroke-linejoin: miter; stroke-miterlimit: 4; fill: rgb(249,223,187); fill-rule: nonzero; opacity: 1;"  transform=" translate(-7.5284118179, -7.5284118179)" d="M 7.52841 0 C 11.684090000000001 0 15.05682 3.37273 15.05682 7.52841 C 15.05682 11.684090000000001 11.684090000000001 15.05682 7.52841 15.05682 C 3.37273 15.05682 0 11.684090000000001 0 7.52841 C 0 3.37273 3.37273 0 7.52841 0 z" stroke-linecap="round" />
</g>
<g transform="matrix(0 -1 1 0 186.0908226025 228.8453778641)" id="Z6m6dPonJEc0oQcrBjJjU"  >
<path style="stroke: rgb(179,83,79); stroke-width: 0; stroke-dasharray: none; stroke-linecap: butt; stroke-dashoffset: 0; stroke-linejoin: miter; stroke-miterlimit: 4; fill: rgb(149,113,68); fill-rule: nonzero; opacity: 1;"  transform=" translate(-4.1871868654, -4.1871868654)" d="M 4.18719 0 C 6.49852 0 8.37438 1.87586 8.37438 4.18719 C 8.37438 6.49852 6.49852 8.37438 4.18719 8.37438 C 1.8758600000000003 8.37438 0 6.49852 0 4.18719 C 0 1.8758600000000003 1.87586 0 4.18719 0 z" stroke-linecap="round" />
</g>
<g transform="matrix(0.3177567521 -0.3529046255 0.7456533112 0.671389257 185.1208636955 228.0111595823)" id="E3T9InbG99NM9mQfD3wp1"  >
<path style="stroke: rgb(179,83,79); stroke-width: 0; stroke-dasharray: none; stroke-linecap: butt; stroke-dashoffset: 0; stroke-linejoin: miter; stroke-miterlimit: 4; fill: rgb(84,66,43); fill-rule: nonzero; opacity: 1;"  transform=" translate(0, 0)" d="M -3.01011 -1.73303 C -3.01011 -2.43834 -1.80202 -3.01011 -0.31176000000000004 -3.01011 L 0.31177 -3.01011 L 0.31177 -3.01011 C 1.8020299999999998 -3.01011 3.01012 -2.43834 3.01012 -1.73303 L 3.01012 1.73303 L 3.01012 1.73303 C 3.01012 2.43834 1.80203 3.01011 0.3117700000000001 3.01011 L -0.3117599999999999 3.01011 L -0.3117599999999999 3.01011 C -1.8020199999999997 3.01011 -3.01011 2.43834 -3.01011 1.73303 z" stroke-linecap="round" />
</g>
<g transform="matrix(0.1305914816 0.0753970271 -0.0753970271 0.1305914816 183.1648494679 226.5208556633)" id="4w3Ze-PtdEQ9A4gwoxZNg"  >
<path style="stroke: rgb(179,83,79); stroke-width: 0; stroke-dasharray: none; stroke-linecap: butt; stroke-dashoffset: 0; stroke-linejoin: miter; stroke-miterlimit: 4; fill: rgb(59,44,26); fill-rule: nonzero; opacity: 1;"  transform=" translate(0, 0)" d="M 0 -14.20455 C 7.84091 -14.20455 14.20455 -7.840909999999999 14.20455 0 C 14.20455 7.84091 7.840909999999999 14.20455 0 14.20455 C -7.84091 14.20455 -14.20455 7.840909999999999 -14.20455 0 C -14.20455 -7.84091 -7.840909999999999 -14.20455 0 -14.20455 z" stroke-linecap="round" />
</g>
<g transform="matrix(1 0 0 1 127.7139784485 312.0844818901)" id="YUH34Tb1l40jmv12iMHTm"  >
<path style="stroke: rgb(252,242,232); stroke-width: 0; stroke-dasharray: none; stroke-linecap: butt; stroke-dashoffset: 0; stroke-linejoin: miter; stroke-miterlimit: 4; fill: rgb(16,12,7); fill-rule: nonzero; opacity: 1;"  transform=" translate(0, 0)" d="M 0.45354 -3.85692 L -4.65194 -10.8263 L -4.65194 -10.8263 C -4.85645 -11.10547 -5.16416 -11.2912 -5.50647 -11.34207 C -5.84877 -11.39294 -6.1972000000000005 -11.30472 -6.47405 -11.09708 L -7.72895 -10.1559 L -7.72895 -10.1559 C -8.56527 -9.52866 -8.76873 -8.35876 -8.19328 -7.485990000000001 L 3.5615699999999997 10.342199999999998 L 3.5615699999999997 10.342199999999998 C 3.9225899999999996 10.889739999999998 4.504049999999999 11.253029999999999 5.15445 11.33739 C 5.80485 11.42175 6.459759999999999 11.218839999999998 6.94852 10.78153 L 7.56377 10.23105 L 7.56377 10.23105 C 8.66398 9.246649999999999 8.83764 7.58806 7.96521 6.39711 z" stroke-linecap="round" />
</g>
<g transform="matrix(0.9975640503 -0.0697564737 0.0697564737 0.9975640503 139.4399764818 300.9318677254)" id="ZJAujRJHmCfPrNoTtM31H"  >
<path style="stroke: rgb(252,242,232); stroke-width: 0; stroke-dasharray: none; stroke-linecap: butt; stroke-dashoffset: 0; stroke-linejoin: miter; stroke-miterlimit: 4; fill: rgb(16,12,7); fill-rule: nonzero; opacity: 1;"  transform=" translate(0.0000011971, 0.0000027905)" d="M 0.45354 -3.85692 L -4.65194 -10.8263 L -4.65194 -10.8263 C -4.85645 -11.10547 -5.16416 -11.2912 -5.50647 -11.34207 C -5.84877 -11.39294 -6.1972000000000005 -11.30472 -6.47405 -11.09708 L -7.72895 -10.1559 L -7.72895 -10.1559 C -8.56527 -9.52866 -8.76873 -8.35876 -8.19328 -7.485990000000001 L 3.5615699999999997 10.342199999999998 L 3.5615699999999997 10.342199999999998 C 3.9225899999999996 10.889739999999998 4.504049999999999 11.253029999999999 5.15445 11.33739 C 5.80485 11.42175 6.459759999999999 11.218839999999998 6.94852 10.78153 L 7.56377 10.23105 L 7.56377 10.23105 C 8.66398 9.246649999999999 8.83764 7.58806 7.96521 6.39711 z" stroke-linecap="round" />
</g>
<g transform="matrix(1 0 0 1 104.9575392459 289.0090687105)" id="TDNMvUSrZNgzUxadMd0Tm"  >
<path style="stroke: rgb(252,242,232); stroke-width: 1; stroke-dasharray: none; stroke-linecap: butt; stroke-dashoffset: 0; stroke-linejoin: miter; stroke-miterlimit: 4; fill: rgb(255,255,255); fill-opacity: 0; fill-rule: nonzero; opacity: 1;"  transform=" translate(0, 0)" d="M 0 0" stroke-linecap="round" />
</g>
<g transform="matrix(1 0 0 1 123.7322428032 356.0233780181)" id="6qORo2L1VCFVW-PuCPpet"  >
<path style="stroke: rgb(252,242,232); stroke-width: 0; stroke-dasharray: none; stroke-linecap: butt; stroke-dashoffset: 0; stroke-linejoin: miter; stroke-miterlimit: 4; fill: rgb(243,204,145); fill-rule: nonzero; opacity: 1;"  transform=" translate(-5.138339224, -5.138339224)" d="M 5.13834 0 C 7.9747 0 10.27668 2.30198 10.27668 5.13834 C 10.27668 7.9747 7.9747 10.27668 5.13834 10.27668 C 2.3019800000000004 10.27668 0 7.9747 0 5.13834 C 0 2.3019800000000004 2.30198 0 5.13834 0 z" stroke-linecap="round" />
</g>
<g transform="matrix(0.6153846136 0 0 0.6153846136 123.7322428032 356.0233780181)" id="dRJsBOHIfFHQVhwxFTOv_"  >
<path style="stroke: rgb(252,242,232); stroke-width: 0; stroke-dasharray: none; stroke-linecap: butt; stroke-dashoffset: 0; stroke-linejoin: miter; stroke-miterlimit: 4; fill: rgb(182,119,51); fill-rule: nonzero; opacity: 1;"  transform=" translate(0, 0)" d="M 0 -5.13834 C 2.83636 -5.13834 5.13834 -2.8363600000000004 5.13834 0 C 5.13834 2.83636 2.8363600000000004 5.13834 0 5.13834 C -2.83636 5.13834 -5.13834 2.8363600000000004 -5.13834 0 C -5.13834 -2.83636 -2.8363600000000004 -5.13834 0 -5.13834 z" stroke-linecap="round" />
</g>
<g transform="matrix(0.3313211465 0 0 0.2955131603 122.8822176446 355.6812835602)" id="EUMmRz_u0mCMIYuyCCIFu"  >
<path style="stroke: rgb(252,242,232); stroke-width: 0; stroke-dasharray: none; stroke-linecap: butt; stroke-dashoffset: 0; stroke-linejoin: miter; stroke-miterlimit: 4; fill: rgb(231,179,100); fill-rule: nonzero; opacity: 1;"  transform=" translate(0, 0)" d="M 0 -5.13834 C 2.83636 -5.13834 5.13834 -2.8363600000000004 5.13834 0 C 5.13834 2.83636 2.8363600000000004 5.13834 0 5.13834 C -2.83636 5.13834 -5.13834 2.8363600000000004 -5.13834 0 C -5.13834 -2.83636 -2.8363600000000004 -5.13834 0 -5.13834 z" stroke-linecap="round" />
</g>
<g transform="matrix(1 0 0 1 143.4556292914 340.1298116956)" id="ymBXNweZmJoUUSc8MVBuk"  >
<path style="stroke: rgb(252,242,232); stroke-width: 0; stroke-dasharray: none; stroke-linecap: butt; stroke-dashoffset: 0; stroke-linejoin: miter; stroke-miterlimit: 4; fill: rgb(243,204,145); fill-rule: nonzero; opacity: 1;"  transform=" translate(-5.13834, -5.13834)" d="M 5.13834 0 C 7.9747 0 10.27668 2.30198 10.27668 5.13834 C 10.27668 7.9747 7.9747 10.27668 5.13834 10.27668 C 2.3019800000000004 10.27668 0 7.9747 0 5.13834 C 0 2.3019800000000004 2.30198 0 5.13834 0 z" stroke-linecap="round" />
</g>
<g transform="matrix(0.6153846136 0 0 0.6153846136 143.4556292914 340.1298116956)" id="QU8te50yKjzeya18Cw53a"  >
<path style="stroke: rgb(252,242,232); stroke-width: 0; stroke-dasharray: none; stroke-linecap: butt; stroke-dashoffset: 0; stroke-linejoin: miter; stroke-miterlimit: 4; fill: rgb(182,119,51); fill-rule: nonzero; opacity: 1;"  transform=" translate(0, 0)" d="M 0 -5.13834 C 2.83636 -5.13834 5.13834 -2.8363600000000004 5.13834 0 C 5.13834 2.83636 2.8363600000000004 5.13834 0 5.13834 C -2.83636 5.13834 -5.13834 2.8363600000000004 -5.13834 0 C -5.13834 -2.83636 -2.8363600000000004 -5.13834 0 -5.13834 z" stroke-linecap="round" />
</g>
<g transform="matrix(0.3313211465 0 0 0.2955131603 142.6056041328 339.7877172378)" id="q-hytenvtds3VVrwC-EGN"  >
<path style="stroke: rgb(252,242,232); stroke-width: 0; stroke-dasharray: none; stroke-linecap: butt; stroke-dashoffset: 0; stroke-linejoin: miter; stroke-miterlimit: 4; fill: rgb(231,179,100); fill-rule: nonzero; opacity: 1;"  transform=" translate(0, 0)" d="M 0 -5.13834 C 2.83636 -5.13834 5.13834 -2.8363600000000004 5.13834 0 C 5.13834 2.83636 2.8363600000000004 5.13834 0 5.13834 C -2.83636 5.13834 -5.13834 2.8363600000000004 -5.13834 0 C -5.13834 -2.83636 -2.8363600000000004 -5.13834 0 -5.13834 z" stroke-linecap="round" />
</g>
<g transform="matrix(1 0 0 1 162.9870033978 347.7229828994)" id="R-DladFikmEztv9brNoq9"  >
<path style="stroke: rgb(252,242,232); stroke-width: 0; stroke-dasharray: none; stroke-linecap: butt; stroke-dashoffset: 0; stroke-linejoin: miter; stroke-miterlimit: 4; fill: rgb(243,204,145); fill-rule: nonzero; opacity: 1;"  transform=" translate(-5.13834, -5.13834)" d="M 5.13834 0 C 7.9747 0 10.27668 2.30198 10.27668 5.13834 C 10.27668 7.9747 7.9747 10.27668 5.13834 10.27668 C 2.3019800000000004 10.27668 0 7.9747 0 5.13834 C 0 2.3019800000000004 2.30198 0 5.13834 0 z" stroke-linecap="round" />
</g>
<g transform="matrix(0.6153846136 0 0 0.6153846136 162.9870033978 347.7229828994)" id="HPtb1P6LPtuNKE3RICI_I"  >
<path style="stroke: rgb(252,242,232); stroke-width: 0; stroke-dasharray: none; stroke-linecap: butt; stroke-dashoffset: 0; stroke-linejoin: miter; stroke-miterlimit: 4; fill: rgb(182,119,51); fill-rule: nonzero; opacity: 1;"  transform=" translate(0, 0)" d="M 0 -5.13834 C 2.83636 -5.13834 5.13834 -2.8363600000000004 5.13834 0 C 5.13834 2.83636 2.8363600000000004 5.13834 0 5.13834 C -2.83636 5.13834 -5.13834 2.8363600000000004 -5.13834 0 C -5.13834 -2.83636 -2.8363600000000004 -5.13834 0 -5.13834 z" stroke-linecap="round" />
</g>
<g transform="matrix(0.3313211465 0 0 0.2955131603 162.1369782392 347.3808884416)" id="IpbCt4-Jfah1lDn99Fqlm"  >
<path style="stroke: rgb(252,242,232); stroke-width: 0; stroke-dasharray: none; stroke-linecap: butt; stroke-dashoffset: 0; stroke-linejoin: miter; stroke-miterlimit: 4; fill: rgb(231,179,100); fill-rule: nonzero; opacity: 1;"  transform=" translate(0, 0)" d="M 0 -5.13834 C 2.83636 -5.13834 5.13834 -2.8363600000000004 5.13834 0 C 5.13834 2.83636 2.8363600000000004 5.13834 0 5.13834 C -2.83636 5.13834 -5.13834 2.8363600000000004 -5.13834 0 C -5.13834 -2.83636 -2.8363600000000004 -5.13834 0 -5.13834 z" stroke-linecap="round" />
</g>
<g transform="matrix(1.0379779027 0 0 1.0379779027 411.4191215477 118.5480847395)" id="TJKYDuBpse8DfceI1EfIc"  >
<path style="stroke: rgb(255,255,255); stroke-width: 0; stroke-dasharray: none; stroke-linecap: butt; stroke-dashoffset: 0; stroke-linejoin: miter; stroke-miterlimit: 4; fill: rgb(243,220,186); fill-rule: nonzero; opacity: 1;"  transform=" translate(0, 0)" d="M -4.85264 -3.7369 L -3.8056900000000002 -2.15061 L -4.1039900000000005 -1.64821 L -4.1039900000000005 -1.64821 C -4.29347 -1.3290899999999999 -4.3055900000000005 -0.93497 -4.13609 -0.6048 L -1.7837800000000001 3.9770899999999996 L -1.7837800000000001 3.9770899999999996 C -1.5324700000000002 4.4666 -1.0747900000000001 4.81753 -0.5368200000000001 4.933199999999999 C 0.0011399999999999189 5.048869999999999 0.5626099999999998 4.917059999999999 0.99291 4.5741 L 4.35088 1.8976999999999995 L 4.35088 1.8976999999999995 C 4.66671 1.6459699999999995 4.85126 1.2645299999999995 4.85263 0.8606599999999995 C 4.854 0.4567799999999995 4.672040000000001 0.0740999999999995 4.35792 -0.17976000000000036 L 1.1648999999999998 -2.7602800000000003 L 1.1648999999999998 -2.7602800000000003 C 0.5353999999999999 -3.2690300000000003 -0.24951000000000012 -3.5465500000000003 -1.0588900000000003 -3.5465500000000003 L -1.0588900000000003 -3.5465500000000003 L -1.0588900000000003 -3.5465500000000003 C -1.2818000000000003 -3.5465500000000003 -1.5038800000000003 -3.51921 -1.7201300000000004 -3.4651500000000004 L -2.02904 -3.3879200000000003 L -3.2029 -4.97421 z" stroke-linecap="round" />
</g>
<g transform="matrix(-1.0322917511 -0.1084982351 0.1084982351 -1.0322917511 374.3214444254 99.5779679867)" id="qZWf6ofUrPwhpdzXVdwqX"  >
<path style="stroke: rgb(255,255,255); stroke-width: 0; stroke-dasharray: none; stroke-linecap: butt; stroke-dashoffset: 0; stroke-linejoin: miter; stroke-miterlimit: 4; fill: rgb(243,220,186); fill-rule: nonzero; opacity: 1;"  transform=" translate(0.0000011595, -0.0000066999)" d="M -4.85264 -3.7369 L -3.8056900000000002 -2.15061 L -4.1039900000000005 -1.64821 L -4.1039900000000005 -1.64821 C -4.29347 -1.3290899999999999 -4.3055900000000005 -0.93497 -4.13609 -0.6048 L -1.7837800000000001 3.9770899999999996 L -1.7837800000000001 3.9770899999999996 C -1.5324700000000002 4.4666 -1.0747900000000001 4.81753 -0.5368200000000001 4.933199999999999 C 0.0011399999999999189 5.048869999999999 0.5626099999999998 4.917059999999999 0.99291 4.5741 L 4.35088 1.8976999999999995 L 4.35088 1.8976999999999995 C 4.66671 1.6459699999999995 4.85126 1.2645299999999995 4.85263 0.8606599999999995 C 4.854 0.4567799999999995 4.672040000000001 0.0740999999999995 4.35792 -0.17976000000000036 L 1.1648999999999998 -2.7602800000000003 L 1.1648999999999998 -2.7602800000000003 C 0.5353999999999999 -3.2690300000000003 -0.24951000000000012 -3.5465500000000003 -1.0588900000000003 -3.5465500000000003 L -1.0588900000000003 -3.5465500000000003 L -1.0588900000000003 -3.5465500000000003 C -1.2818000000000003 -3.5465500000000003 -1.5038800000000003 -3.51921 -1.7201300000000004 -3.4651500000000004 L -2.02904 -3.3879200000000003 L -3.2029 -4.97421 z" stroke-linecap="round" />
</g>
<g transform="matrix(-1.0322917511 -0.1084982351 0.1084982351 -1.0322917511 386.0478139666 91.718161982)" id="aiJQst7bfNN8DV5t7Ro8u"  >
<path style="stroke: rgb(255,255,255); stroke-width: 0; stroke-dasharray: none; stroke-linecap: butt; stroke-dashoffset: 0; stroke-linejoin: miter; stroke-miterlimit: 4; fill: rgb(243,220,186); fill-rule: nonzero; opacity: 1;"  transform=" translate(0.0000011595, -0.0000066999)" d="M -4.85264 -3.7369 L -3.8056900000000002 -2.15061 L -4.1039900000000005 -1.64821 L -4.1039900000000005 -1.64821 C -4.29347 -1.3290899999999999 -4.3055900000000005 -0.93497 -4.13609 -0.6048 L -1.7837800000000001 3.9770899999999996 L -1.7837800000000001 3.9770899999999996 C -1.5324700000000002 4.4666 -1.0747900000000001 4.81753 -0.5368200000000001 4.933199999999999 C 0.0011399999999999189 5.048869999999999 0.5626099999999998 4.917059999999999 0.99291 4.5741 L 4.35088 1.8976999999999995 L 4.35088 1.8976999999999995 C 4.66671 1.6459699999999995 4.85126 1.2645299999999995 4.85263 0.8606599999999995 C 4.854 0.4567799999999995 4.672040000000001 0.0740999999999995 4.35792 -0.17976000000000036 L 1.1648999999999998 -2.7602800000000003 L 1.1648999999999998 -2.7602800000000003 C 0.5353999999999999 -3.2690300000000003 -0.24951000000000012 -3.5465500000000003 -1.0588900000000003 -3.5465500000000003 L -1.0588900000000003 -3.5465500000000003 L -1.0588900000000003 -3.5465500000000003 C -1.2818000000000003 -3.5465500000000003 -1.5038800000000003 -3.51921 -1.7201300000000004 -3.4651500000000004 L -2.02904 -3.3879200000000003 L -3.2029 -4.97421 z" stroke-linecap="round" />
</g>
<g transform="matrix(1 0 0 1 142.6056041328 363.9183760686)" id="Gc3pWuANLRHMJEjAQcPKb"  >
<path style="stroke: rgb(252,242,232); stroke-width: 0; stroke-dasharray: none; stroke-linecap: butt; stroke-dashoffset: 0; stroke-linejoin: miter; stroke-miterlimit: 4; fill: rgb(243,204,145); fill-rule: nonzero; opacity: 1;"  transform=" translate(-5.13834, -5.13834)" d="M 5.13834 0 C 7.9747 0 10.27668 2.30198 10.27668 5.13834 C 10.27668 7.9747 7.9747 10.27668 5.13834 10.27668 C 2.3019800000000004 10.27668 0 7.9747 0 5.13834 C 0 2.3019800000000004 2.30198 0 5.13834 0 z" stroke-linecap="round" />
</g>
<g transform="matrix(1 0 0 1 399.5639409094 126.195170211)" id="6ry4EGr_RozZ_X-9mQjHl"  >
<path style="stroke: rgb(255,255,255); stroke-width: 0; stroke-dasharray: none; stroke-linecap: butt; stroke-dashoffset: 0; stroke-linejoin: miter; stroke-miterlimit: 4; fill: rgb(243,220,186); fill-rule: nonzero; opacity: 1;"  transform=" translate(0.0000011595, -0.0000066999)" d="M -4.85264 -3.7369 L -3.8056900000000002 -2.15061 L -4.1039900000000005 -1.64821 L -4.1039900000000005 -1.64821 C -4.29347 -1.3290899999999999 -4.3055900000000005 -0.93497 -4.13609 -0.6048 L -1.7837800000000001 3.9770899999999996 L -1.7837800000000001 3.9770899999999996 C -1.5324700000000002 4.4666 -1.0747900000000001 4.81753 -0.5368200000000001 4.933199999999999 C 0.0011399999999999189 5.048869999999999 0.5626099999999998 4.917059999999999 0.99291 4.5741 L 4.35088 1.8976999999999995 L 4.35088 1.8976999999999995 C 4.66671 1.6459699999999995 4.85126 1.2645299999999995 4.85263 0.8606599999999995 C 4.854 0.4567799999999995 4.672040000000001 0.0740999999999995 4.35792 -0.17976000000000036 L 1.1648999999999998 -2.7602800000000003 L 1.1648999999999998 -2.7602800000000003 C 0.5353999999999999 -3.2690300000000003 -0.24951000000000012 -3.5465500000000003 -1.0588900000000003 -3.5465500000000003 L -1.0588900000000003 -3.5465500000000003 L -1.0588900000000003 -3.5465500000000003 C -1.2818000000000003 -3.5465500000000003 -1.5038800000000003 -3.51921 -1.7201300000000004 -3.4651500000000004 L -2.02904 -3.3879200000000003 L -3.2029 -4.97421 z" stroke-linecap="round" />
</g>
<g transform="matrix(1 0 0 1 388.2407937364 134.0568453379)" id="HXuGJ7UKmdUo6spZy0nL9"  >
<path style="stroke: rgb(255,255,255); stroke-width: 0; stroke-dasharray: none; stroke-linecap: butt; stroke-dashoffset: 0; stroke-linejoin: miter; stroke-miterlimit: 4; fill: rgb(243,220,186); fill-rule: nonzero; opacity: 1;"  transform=" translate(0, 0)" d="M -4.85264 -3.7369 L -3.8056900000000002 -2.15061 L -4.1039900000000005 -1.64821 L -4.1039900000000005 -1.64821 C -4.29347 -1.3290899999999999 -4.3055900000000005 -0.93497 -4.13609 -0.6048 L -1.7837800000000001 3.9770899999999996 L -1.7837800000000001 3.9770899999999996 C -1.5324700000000002 4.4666 -1.0747900000000001 4.81753 -0.5368200000000001 4.933199999999999 C 0.0011399999999999189 5.048869999999999 0.5626099999999998 4.917059999999999 0.99291 4.5741 L 4.35088 1.8976999999999995 L 4.35088 1.8976999999999995 C 4.66671 1.6459699999999995 4.85126 1.2645299999999995 4.85263 0.8606599999999995 C 4.854 0.4567799999999995 4.672040000000001 0.0740999999999995 4.35792 -0.17976000000000036 L 1.1648999999999998 -2.7602800000000003 L 1.1648999999999998 -2.7602800000000003 C 0.5353999999999999 -3.2690300000000003 -0.24951000000000012 -3.5465500000000003 -1.0588900000000003 -3.5465500000000003 L -1.0588900000000003 -3.5465500000000003 L -1.0588900000000003 -3.5465500000000003 C -1.2818000000000003 -3.5465500000000003 -1.5038800000000003 -3.51921 -1.7201300000000004 -3.4651500000000004 L -2.02904 -3.3879200000000003 L -3.2029 -4.97421 z" stroke-linecap="round" />
</g>
<g transform="matrix(0.6153846136 0 0 0.6153846136 142.6056041328 363.9183760686)" id="XfPQOI9DBrmO-GYwGgbLo"  >
<path style="stroke: rgb(252,242,232); stroke-width: 0; stroke-dasharray: none; stroke-linecap: butt; stroke-dashoffset: 0; stroke-linejoin: miter; stroke-miterlimit: 4; fill: rgb(182,119,51); fill-rule: nonzero; opacity: 1;"  transform=" translate(0, 0)" d="M 0 -5.13834 C 2.83636 -5.13834 5.13834 -2.8363600000000004 5.13834 0 C 5.13834 2.83636 2.8363600000000004 5.13834 0 5.13834 C -2.83636 5.13834 -5.13834 2.8363600000000004 -5.13834 0 C -5.13834 -2.83636 -2.8363600000000004 -5.13834 0 -5.13834 z" stroke-linecap="round" />
</g>
<g transform="matrix(0.3313211465 0 0 0.2955131603 141.7555789742 363.5762816108)" id="zB-QIZsOK7LCCTpDDZyuZ"  >
<path style="stroke: rgb(252,242,232); stroke-width: 0; stroke-dasharray: none; stroke-linecap: butt; stroke-dashoffset: 0; stroke-linejoin: miter; stroke-miterlimit: 4; fill: rgb(231,179,100); fill-rule: nonzero; opacity: 1;"  transform=" translate(0, 0)" d="M 0 -5.13834 C 2.83636 -5.13834 5.13834 -2.8363600000000004 5.13834 0 C 5.13834 2.83636 2.8363600000000004 5.13834 0 5.13834 C -2.83636 5.13834 -5.13834 2.8363600000000004 -5.13834 0 C -5.13834 -2.83636 -2.8363600000000004 -5.13834 0 -5.13834 z" stroke-linecap="round" />
</g>
<g transform="matrix(-1.0322917511 -0.1084982351 0.1084982351 -1.0322917511 363.2233788671 107.7236150491)" id="u13wqYPWdfQ34IU2a5YhL"  >
<path style="stroke: rgb(255,255,255); stroke-width: 0; stroke-dasharray: none; stroke-linecap: butt; stroke-dashoffset: 0; stroke-linejoin: miter; stroke-miterlimit: 4; fill: rgb(243,220,186); fill-rule: nonzero; opacity: 1;"  transform=" translate(0.0000011595, -0.0000066999)" d="M -4.85264 -3.7369 L -3.8056900000000002 -2.15061 L -4.1039900000000005 -1.64821 L -4.1039900000000005 -1.64821 C -4.29347 -1.3290899999999999 -4.3055900000000005 -0.93497 -4.13609 -0.6048 L -1.7837800000000001 3.9770899999999996 L -1.7837800000000001 3.9770899999999996 C -1.5324700000000002 4.4666 -1.0747900000000001 4.81753 -0.5368200000000001 4.933199999999999 C 0.0011399999999999189 5.048869999999999 0.5626099999999998 4.917059999999999 0.99291 4.5741 L 4.35088 1.8976999999999995 L 4.35088 1.8976999999999995 C 4.66671 1.6459699999999995 4.85126 1.2645299999999995 4.85263 0.8606599999999995 C 4.854 0.4567799999999995 4.672040000000001 0.0740999999999995 4.35792 -0.17976000000000036 L 1.1648999999999998 -2.7602800000000003 L 1.1648999999999998 -2.7602800000000003 C 0.5353999999999999 -3.2690300000000003 -0.24951000000000012 -3.5465500000000003 -1.0588900000000003 -3.5465500000000003 L -1.0588900000000003 -3.5465500000000003 L -1.0588900000000003 -3.5465500000000003 C -1.2818000000000003 -3.5465500000000003 -1.5038800000000003 -3.51921 -1.7201300000000004 -3.4651500000000004 L -2.02904 -3.3879200000000003 L -3.2029 -4.97421 z" stroke-linecap="round" />
</g>
<g transform="matrix(1 0 0 1 124.5846582062 302.5027697241)" id="GA4QaD4uuu8nJYWN5Mg6z"  >
<path style="stroke: rgb(252,242,232); stroke-width: 1; stroke-dasharray: none; stroke-linecap: butt; stroke-dashoffset: 0; stroke-linejoin: miter; stroke-miterlimit: 4; fill: rgb(255,255,255); fill-opacity: 0; fill-rule: nonzero; opacity: 1;"  transform=" translate(0, 0)" d="M 0 0" stroke-linecap="round" />
</g>
<g transform="matrix(1 0 0 1 274.3642177656 195.4108722752)" id="lEmJnf_0w26Um7MEFdoIm"  >
<linearGradient id="SVGID_646" gradientUnits="userSpaceOnUse" gradientTransform="matrix(1 0 0 1 -85.5290690066 -69.9497477556)"  x1="-23.486950488676143" y1="69.94974775556992" x2="194.54508850187653" y2="69.94974775556992">
<stop offset="0%" style="stop-color:#674E4E;stop-opacity: 1"/>
<stop offset="65.02525615340889%" style="stop-color:#8C7575;stop-opacity: 1"/>
<stop offset="76.19912140050235%" style="stop-color:#674E4E;stop-opacity: 1"/>
<stop offset="100%" style="stop-color:#674E4E;stop-opacity: 1"/>
</linearGradient>
<path style="stroke: rgb(98,72,66); stroke-width: 1; stroke-dasharray: none; stroke-linecap: butt; stroke-dashoffset: 0; stroke-linejoin: miter; stroke-miterlimit: 4; fill: url(#SVGID_646); fill-rule: nonzero; opacity: 1;"  transform=" translate(0, 0)" d="M -85.52907 53.17981 L 16.62102 -25.83927 L 73.64382 -69.94975 L 85.52907 -56.834999999999994 L -72.17288 69.94974 z" stroke-linecap="round" />
</g>
<g transform="matrix(1 0 0 1 281.4260908724 195.9790540934)" id="Nned30ccWw6b9doeTISeL"  >
<path style="stroke: rgb(98,72,66); stroke-width: 0; stroke-dasharray: none; stroke-linecap: butt; stroke-dashoffset: 0; stroke-linejoin: miter; stroke-miterlimit: 4; fill: rgb(255,255,255); fill-rule: nonzero; opacity: 1;"  transform=" translate(0, 0)" d="M -80.69148 69.02696 L 77.73245000000001 -57.81300999999999 L 65.94035000000001 -71.01792999999999 L 68.71606000000001 -71.01792999999999 L 80.69147000000001 -57.81300999999999 L -79.23476 71.01793 z" stroke-linecap="round" />
</g>
<g transform="matrix(1 0 0 1 384.0291767706 111.2703727809)" id="5d8JSWiXwAFTbDhMV6ka1"  >
<path style="stroke: rgb(5,5,5); stroke-width: 1; stroke-dasharray: none; stroke-linecap: butt; stroke-dashoffset: 0; stroke-linejoin: miter; stroke-miterlimit: 4; fill: rgb(5,5,5); fill-rule: nonzero; opacity: 1;"  transform=" translate(0, 0)" d="M -34.82717 13.69075 L -27.318640000000002 8.16805 L -27.318640000000002 2.208409999999999 L -5.657110000000003 -11.55432 L 12.059579999999997 -24.92275 L 12.059579999999997 -24.92275 C 12.837829999999997 -25.509990000000002 13.818359999999997 -25.76216 14.783359999999997 -25.62323 C 15.748359999999996 -25.4843 16.617929999999998 -24.96579 17.198929999999997 -24.182859999999998 L 18.695879999999995 -22.165609999999997 L 25.923679999999997 -17.586819999999996 C 25.923679999999997 -17.586819999999996 25.620039999999996 -16.801869999999997 26.302639999999997 -16.204609999999995 C 26.985229999999998 -15.607339999999995 28.654059999999998 -15.197749999999996 28.654059999999998 -15.197749999999996 L 31.51831 -9.131559999999997 L 34.56642 -5.133299999999997 L 34.56642 -5.133299999999997 C 34.7908 -4.838879999999997 34.87604 -4.4614299999999965 34.79995 -4.099159999999997 C 34.72386 -3.7368899999999967 34.493970000000004 -3.425619999999997 34.170100000000005 -3.2463599999999966 C 26.953840000000007 0.7479200000000032 22.986930000000005 2.6040200000000038 12.594820000000006 9.370970000000003 C 1.587990000000005 16.538210000000003 -8.547309999999996 24.733980000000003 -8.547309999999996 24.733980000000003 C -8.547309999999996 24.733980000000003 -11.362859999999996 23.277990000000003 -15.220329999999997 23.277990000000003 C -19.077799999999996 23.277990000000003 -22.91829 25.66052 -22.91829 25.66052 z" stroke-linecap="round" />
</g>
<g transform="matrix(0.7946430512 0 0 0.6785715701 391.5968467458 96.2471162207)" id="UPfwQVwT2gEI9DSpRT1Ct"  >
<path style="stroke: rgb(5,5,5); stroke-width: 0; stroke-dasharray: none; stroke-linecap: butt; stroke-dashoffset: 0; stroke-linejoin: miter; stroke-miterlimit: 4; fill: rgb(103,93,85); fill-rule: nonzero; opacity: 1;"  transform=" translate(0, 0)" d="M 0 -3.70615 C 2.0458 -3.70615 3.70615 -2.04579 3.70615 0 C 3.70615 2.0458 2.04579 3.70615 0 3.70615 C -2.0458 3.70615 -3.70615 2.04579 -3.70615 0 C -3.70615 -2.0458 -2.04579 -3.70615 0 -3.70615 z" stroke-linecap="round" />
</g>
<g transform="matrix(0.1033557911 -0.6525627825 0.1457308627 0.0230815011 391.5968467458 94.8754666773)" id="g4hscVXokZ-Qoc2neUdF7"  >
<path style="stroke: rgb(5,5,5); stroke-width: 0; stroke-dasharray: none; stroke-linecap: butt; stroke-dashoffset: 0; stroke-linejoin: miter; stroke-miterlimit: 4; fill: rgb(227,227,227); fill-rule: nonzero; opacity: 1;"  transform=" translate(0, 0)" d="M 0 -3.70615 C 2.0458 -3.70615 3.70615 -2.04579 3.70615 0 C 3.70615 2.0458 2.04579 3.70615 0 3.70615 C -2.0458 3.70615 -3.70615 2.04579 -3.70615 0 C -3.70615 -2.0458 -2.04579 -3.70615 0 -3.70615 z" stroke-linecap="round" />
</g>
<g transform="matrix(0.7946430512 0 0 0.6785715701 404.8397322521 109.8870897523)" id="-ES8FfkJJAnJSehGUiXRC"  >
<path style="stroke: rgb(5,5,5); stroke-width: 0; stroke-dasharray: none; stroke-linecap: butt; stroke-dashoffset: 0; stroke-linejoin: miter; stroke-miterlimit: 4; fill: rgb(103,93,85); fill-rule: nonzero; opacity: 1;"  transform=" translate(0, 0)" d="M 0 -3.70615 C 2.0458 -3.70615 3.70615 -2.04579 3.70615 0 C 3.70615 2.0458 2.04579 3.70615 0 3.70615 C -2.0458 3.70615 -3.70615 2.04579 -3.70615 0 C -3.70615 -2.0458 -2.04579 -3.70615 0 -3.70615 z" stroke-linecap="round" />
</g>
<g transform="matrix(0.1033557911 -0.6525627825 0.1457308628 0.0230815011 404.8397322521 108.5154402089)" id="Mnbqk-OAuO19fVfdD1oa7"  >
<path style="stroke: rgb(5,5,5); stroke-width: 0; stroke-dasharray: none; stroke-linecap: butt; stroke-dashoffset: 0; stroke-linejoin: miter; stroke-miterlimit: 4; fill: rgb(227,227,227); fill-rule: nonzero; opacity: 1;"  transform=" translate(0, 0)" d="M 0 -3.70615 C 2.0458 -3.70615 3.70615 -2.04579 3.70615 0 C 3.70615 2.0458 2.04579 3.70615 0 3.70615 C -2.0458 3.70615 -3.70615 2.04579 -3.70615 0 C -3.70615 -2.0458 -2.04579 -3.70615 0 -3.70615 z" stroke-linecap="round" />
</g>
<g transform="matrix(0.7946430512 0 0 0.6785715701 392.5199999336 116.9751109303)" id="VCxRl2jnBhkdHjJFc_cAz"  >
<path style="stroke: rgb(5,5,5); stroke-width: 0; stroke-dasharray: none; stroke-linecap: butt; stroke-dashoffset: 0; stroke-linejoin: miter; stroke-miterlimit: 4; fill: rgb(103,93,85); fill-rule: nonzero; opacity: 1;"  transform=" translate(0, 0)" d="M 0 -3.70615 C 2.0458 -3.70615 3.70615 -2.04579 3.70615 0 C 3.70615 2.0458 2.04579 3.70615 0 3.70615 C -2.0458 3.70615 -3.70615 2.04579 -3.70615 0 C -3.70615 -2.0458 -2.04579 -3.70615 0 -3.70615 z" stroke-linecap="round" />
</g>
<g transform="matrix(0.1033557911 -0.6525627825 0.1457308628 0.0230815011 392.5199999336 115.6034613869)" id="DA0LucTcwBET7ApRTPZlb"  >
<path style="stroke: rgb(5,5,5); stroke-width: 0; stroke-dasharray: none; stroke-linecap: butt; stroke-dashoffset: 0; stroke-linejoin: miter; stroke-miterlimit: 4; fill: rgb(227,227,227); fill-rule: nonzero; opacity: 1;"  transform=" translate(0, 0)" d="M 0 -3.70615 C 2.0458 -3.70615 3.70615 -2.04579 3.70615 0 C 3.70615 2.0458 2.04579 3.70615 0 3.70615 C -2.0458 3.70615 -3.70615 2.04579 -3.70615 0 C -3.70615 -2.0458 -2.04579 -3.70615 0 -3.70615 z" stroke-linecap="round" />
</g>
<g transform="matrix(0.7946430512 0 0 0.6785715701 381.0841104264 124.195494782)" id="Y-c7-xXDuqrF66g0pwNWk"  >
<path style="stroke: rgb(5,5,5); stroke-width: 0; stroke-dasharray: none; stroke-linecap: butt; stroke-dashoffset: 0; stroke-linejoin: miter; stroke-miterlimit: 4; fill: rgb(103,93,85); fill-rule: nonzero; opacity: 1;"  transform=" translate(0, 0)" d="M 0 -3.70615 C 2.0458 -3.70615 3.70615 -2.04579 3.70615 0 C 3.70615 2.0458 2.04579 3.70615 0 3.70615 C -2.0458 3.70615 -3.70615 2.04579 -3.70615 0 C -3.70615 -2.0458 -2.04579 -3.70615 0 -3.70615 z" stroke-linecap="round" />
</g>
<g transform="matrix(0.1033557911 -0.6525627825 0.1457308628 0.0230815011 381.0841104264 122.8238452386)" id="s5G9BTU75lV9KD4H8R9G-"  >
<path style="stroke: rgb(5,5,5); stroke-width: 0; stroke-dasharray: none; stroke-linecap: butt; stroke-dashoffset: 0; stroke-linejoin: miter; stroke-miterlimit: 4; fill: rgb(227,227,227); fill-rule: nonzero; opacity: 1;"  transform=" translate(0, 0)" d="M 0 -3.70615 C 2.0458 -3.70615 3.70615 -2.04579 3.70615 0 C 3.70615 2.0458 2.04579 3.70615 0 3.70615 C -2.0458 3.70615 -3.70615 2.04579 -3.70615 0 C -3.70615 -2.0458 -2.04579 -3.70615 0 -3.70615 z" stroke-linecap="round" />
</g>
<g transform="matrix(0.7946430512 0 0 0.6785715701 369.3766319353 111.2478903331)" id="a_P7HLtGm4N6yOHbBT0Xq"  >
<path style="stroke: rgb(5,5,5); stroke-width: 0; stroke-dasharray: none; stroke-linecap: butt; stroke-dashoffset: 0; stroke-linejoin: miter; stroke-miterlimit: 4; fill: rgb(103,93,85); fill-rule: nonzero; opacity: 1;"  transform=" translate(0, 0)" d="M 0 -3.70615 C 2.0458 -3.70615 3.70615 -2.04579 3.70615 0 C 3.70615 2.0458 2.04579 3.70615 0 3.70615 C -2.0458 3.70615 -3.70615 2.04579 -3.70615 0 C -3.70615 -2.0458 -2.04579 -3.70615 0 -3.70615 z" stroke-linecap="round" />
</g>
<g transform="matrix(0.1033557911 -0.6525627825 0.1457308628 0.0230815011 369.3766319353 109.8762407897)" id="QCaSvymeQZgbgSm0Tyzt6"  >
<path style="stroke: rgb(5,5,5); stroke-width: 0; stroke-dasharray: none; stroke-linecap: butt; stroke-dashoffset: 0; stroke-linejoin: miter; stroke-miterlimit: 4; fill: rgb(227,227,227); fill-rule: nonzero; opacity: 1;"  transform=" translate(0, 0)" d="M 0 -3.70615 C 2.0458 -3.70615 3.70615 -2.04579 3.70615 0 C 3.70615 2.0458 2.04579 3.70615 0 3.70615 C -2.0458 3.70615 -3.70615 2.04579 -3.70615 0 C -3.70615 -2.0458 -2.04579 -3.70615 0 -3.70615 z" stroke-linecap="round" />
</g>
<g transform="matrix(0.7946430512 0 0 0.6785715701 381.0841104264 104.1069240856)" id="8ALuXMMGGS6MkVbdr4YUl"  >
<path style="stroke: rgb(5,5,5); stroke-width: 0; stroke-dasharray: none; stroke-linecap: butt; stroke-dashoffset: 0; stroke-linejoin: miter; stroke-miterlimit: 4; fill: rgb(103,93,85); fill-rule: nonzero; opacity: 1;"  transform=" translate(0, 0)" d="M 0 -3.70615 C 2.0458 -3.70615 3.70615 -2.04579 3.70615 0 C 3.70615 2.0458 2.04579 3.70615 0 3.70615 C -2.0458 3.70615 -3.70615 2.04579 -3.70615 0 C -3.70615 -2.0458 -2.04579 -3.70615 0 -3.70615 z" stroke-linecap="round" />
</g>
<g transform="matrix(0.1033557911 -0.6525627825 0.1457308628 0.0230815011 381.0841104264 102.7352745422)" id="njku47wwWxYo9iNUpYlkR"  >
<path style="stroke: rgb(5,5,5); stroke-width: 0; stroke-dasharray: none; stroke-linecap: butt; stroke-dashoffset: 0; stroke-linejoin: miter; stroke-miterlimit: 4; fill: rgb(227,227,227); fill-rule: nonzero; opacity: 1;"  transform=" translate(0, 0)" d="M 0 -3.70615 C 2.0458 -3.70615 3.70615 -2.04579 3.70615 0 C 3.70615 2.0458 2.04579 3.70615 0 3.70615 C -2.0458 3.70615 -3.70615 2.04579 -3.70615 0 C -3.70615 -2.0458 -2.04579 -3.70615 0 -3.70615 z" stroke-linecap="round" />
</g>
<g transform="matrix(1.2957763027 0.1821094832 -0.139173101 0.9902680687 213.6738962022 242.3234464326)" id="YjZQHmy_Cu2h6y95KWE-0"  >
<path style="stroke: rgb(5,5,5); stroke-width: 0; stroke-dasharray: none; stroke-linecap: butt; stroke-dashoffset: 0; stroke-linejoin: miter; stroke-miterlimit: 4; fill: rgb(227,227,227); fill-rule: nonzero; opacity: 1;"  transform=" translate(0, 0)" d="M -4.64409 -6.17849 L -5.37758 -4.11899 L 2.745990000000001 6.17849 L 5.37757 5.49199 z" stroke-linecap="round" />
</g>
<g transform="matrix(1.2957763027 0.1821094832 -0.139173101 0.9902680687 223.2162302983 235.1088283463)" id="B9bn01qszUBc_qvdejW7-"  >
<path style="stroke: rgb(5,5,5); stroke-width: 0; stroke-dasharray: none; stroke-linecap: butt; stroke-dashoffset: 0; stroke-linejoin: miter; stroke-miterlimit: 4; fill: rgb(227,227,227); fill-rule: nonzero; opacity: 1;"  transform=" translate(0.000005, 0)" d="M -4.64409 -6.17849 L -5.37758 -4.11899 L 2.745990000000001 6.17849 L 5.37757 5.49199 z" stroke-linecap="round" />
</g>
<g transform="matrix(1 0 0 1 232.4381982616 226.7585696043)" id="9Y9aq-feEjx6INYqf9yA_"  >
<path style="stroke: rgb(5,5,5); stroke-width: 0; stroke-dasharray: none; stroke-linecap: butt; stroke-dashoffset: 0; stroke-linejoin: miter; stroke-miterlimit: 4; fill: rgb(227,227,227); fill-rule: nonzero; opacity: 1;"  transform=" translate(0, 0)" d="M -4.09092 -3.16369 L -5.20595 -2.10038 L 0.6292900000000001 6.273990000000001 C 0.6292900000000001 6.273990000000001 0.8529400000000001 5.444230000000001 1.9971 5.167650000000001 C 3.14126 4.891060000000001 5.20594 5.167650000000001 5.20594 5.167650000000001 L -3.6041299999999996 -6.273999999999998 z" stroke-linecap="round" />
</g>
<g transform="matrix(1 0 0 1 249.188770344 213.3031920299)" id="YFpnbQovJeGjl5ath63u_"  >
<path style="stroke: rgb(5,5,5); stroke-width: 0; stroke-dasharray: none; stroke-linecap: butt; stroke-dashoffset: 0; stroke-linejoin: miter; stroke-miterlimit: 4; fill: rgb(227,227,227); fill-rule: nonzero; opacity: 1;"  transform=" translate(0.000005, 0.000005)" d="M -4.09092 -3.16369 L -5.20595 -2.10038 L 0.6292900000000001 6.273990000000001 C 0.6292900000000001 6.273990000000001 0.8529400000000001 5.444230000000001 1.9971 5.167650000000001 C 3.14126 4.891060000000001 5.20594 5.167650000000001 5.20594 5.167650000000001 L -3.6041299999999996 -6.273999999999998 z" stroke-linecap="round" />
</g>
<g transform="matrix(1.2264625026 0.1289064034 -0.1045284633 0.9945218954 270.2579765466 196.6441531283)" id="JFEAQ5BYLGdbnj7HtReZW"  >
<path style="stroke: rgb(5,5,5); stroke-width: 0; stroke-dasharray: none; stroke-linecap: butt; stroke-dashoffset: 0; stroke-linejoin: miter; stroke-miterlimit: 4; fill: rgb(227,227,227); fill-rule: nonzero; opacity: 1;"  transform=" translate(0, 0)" d="M -4.09092 -3.16369 L -5.20595 -2.10038 L 0.6292900000000001 6.273990000000001 C 0.6292900000000001 6.273990000000001 0.8529400000000001 5.444230000000001 1.9971 5.167650000000001 C 3.14126 4.891060000000001 5.20594 5.167650000000001 5.20594 5.167650000000001 L -3.6041299999999996 -6.273999999999998 z" stroke-linecap="round" />
</g>
<g transform="matrix(1.2264625026 0.1289064034 -0.1045284633 0.9945218954 285.7499673933 184.3329403137)" id="fcCQfIsp-0meUcT5ymir0"  >
<path style="stroke: rgb(5,5,5); stroke-width: 0; stroke-dasharray: none; stroke-linecap: butt; stroke-dashoffset: 0; stroke-linejoin: miter; stroke-miterlimit: 4; fill: rgb(227,227,227); fill-rule: nonzero; opacity: 1;"  transform=" translate(0.000005, 0.000005)" d="M -4.09092 -3.16369 L -5.20595 -2.10038 L 0.6292900000000001 6.273990000000001 C 0.6292900000000001 6.273990000000001 0.8529400000000001 5.444230000000001 1.9971 5.167650000000001 C 3.14126 4.891060000000001 5.20594 5.167650000000001 5.20594 5.167650000000001 L -3.6041299999999996 -6.273999999999998 z" stroke-linecap="round" />
</g>
<g transform="matrix(1 0 0 1 303.844813508 170.0203630103)" id="KyUgnBN6NeZUzpgLnW8Og"  >
<path style="stroke: rgb(5,5,5); stroke-width: 0; stroke-dasharray: none; stroke-linecap: butt; stroke-dashoffset: 0; stroke-linejoin: miter; stroke-miterlimit: 4; fill: rgb(227,227,227); fill-rule: nonzero; opacity: 1;"  transform=" translate(0, 0)" d="M -5.72082 0 L -3.4811699999999997 -2.12495 L -1.7162399999999995 -6.17849 L 5.720830000000001 2.7460000000000004 C 5.720830000000001 2.7460000000000004 3.142920000000001 2.9766900000000005 1.5124900000000014 3.8348200000000006 C -0.1179399999999986 4.69294 -0.8009099999999987 6.1785000000000005 -0.8009099999999987 6.1785000000000005 z" stroke-linecap="round" />
</g>
<g transform="matrix(0.999390827 0.0348994967 -0.0348994967 0.999390827 324.2567128215 154.6199053444)" id="uddXkNPlybVHa8vp49wS8"  >
<path style="stroke: rgb(5,5,5); stroke-width: 0; stroke-dasharray: none; stroke-linecap: butt; stroke-dashoffset: 0; stroke-linejoin: miter; stroke-miterlimit: 4; fill: rgb(227,227,227); fill-rule: nonzero; opacity: 1;"  transform=" translate(-0.000005, -0.000005)" d="M -5.72082 0 L -3.4811699999999997 -2.12495 L -1.7162399999999995 -6.17849 L 5.720830000000001 2.7460000000000004 C 5.720830000000001 2.7460000000000004 3.142920000000001 2.9766900000000005 1.5124900000000014 3.8348200000000006 C -0.1179399999999986 4.69294 -0.8009099999999987 6.1785000000000005 -0.8009099999999987 6.1785000000000005 z" stroke-linecap="round" />
</g>
<g transform="matrix(1 0 0 1 246.5544373693 206.5111244975)" id="pxG-2CaP3CW_Pul0iGIsc"  >
<path style="stroke: rgb(255,255,255); stroke-width: 1; stroke-dasharray: none; stroke-linecap: butt; stroke-dashoffset: 0; stroke-linejoin: miter; stroke-miterlimit: 4; fill: rgb(255,255,255); fill-opacity: 0; fill-rule: nonzero; opacity: 1;"  transform=" translate(0, 0)" d="M -122.82219 95.49165 L -112.85286 83.96769 L -93.27052 69.21942 L -36.92649000000001 26.78438 L 28.587929999999993 -23.42528 L 102.14757 -79.80073 L 122.82219 -95.49163" stroke-linecap="round" />
</g>
<g transform="matrix(1 0 0 1 257.6428398661 220.8848678963)" id="MADNrgbh1G1GwfsuC715l"  >
<path style="stroke: rgb(255,255,255); stroke-width: 1; stroke-dasharray: none; stroke-linecap: butt; stroke-dashoffset: 0; stroke-linejoin: miter; stroke-miterlimit: 4; fill: rgb(255,255,255); fill-opacity: 0; fill-rule: nonzero; opacity: 1;"  transform=" translate(0, 0)" d="M -123.44127 95.92374 L -113.47194 84.39977999999999 L -93.8896 69.65150999999999 L -59.07685 43.02656999999999 L 100.34925999999999 -83.45394 L 123.44127999999999 -95.92374000000001" stroke-linecap="round" />
</g>
<g transform="matrix(1 0 0 1 262.1876298977 215.5016005322)" id="dDQeT4hi2yTpVfuEcj0j8"  >
<path style="stroke: rgb(255,255,255); stroke-width: 1; stroke-dasharray: none; stroke-linecap: butt; stroke-dashoffset: 0; stroke-linejoin: miter; stroke-miterlimit: 4; fill: rgb(255,255,255); fill-opacity: 0; fill-rule: nonzero; opacity: 1;"  transform=" translate(0, 0)" d="M -129.40922 98.52649 L -119.43989 87.00253 L -99.85755 72.25425999999999 L -65.04480000000001 45.62931999999999 L 94.38130999999998 -80.85119 L 115.95141999999998 -91.3061 L 129.40921999999998 -98.52648" stroke-linecap="round" />
</g>
<g transform="matrix(1 0 0 1 267.2826222697 209.9155965842)" id="gGdLaGhfbXth52cig9nb-"  >
<path style="stroke: rgb(255,255,255); stroke-width: 1; stroke-dasharray: none; stroke-linecap: butt; stroke-dashoffset: 0; stroke-linejoin: miter; stroke-miterlimit: 4; fill: rgb(255,255,255); fill-opacity: 0; fill-rule: nonzero; opacity: 1;"  transform=" translate(0, 0)" d="M -136.63396 100.03936 L -126.66463 88.5154 L -107.08229 73.76713 L -72.26954 47.14219 L 88.33580999999998 -78.39492 L 120.28327999999998 -96.1528 L 136.63395999999997 -100.03934" stroke-linecap="round" />
</g>
<g transform="matrix(1 0 0 1 253.3343843163 204.1210417183)" id="5Tqx3ijQtueYWysLygBhL"  >
<path style="stroke: rgb(255,255,255); stroke-width: 1; stroke-dasharray: none; stroke-linecap: butt; stroke-dashoffset: 0; stroke-linejoin: miter; stroke-miterlimit: 4; fill: rgb(255,255,255); fill-opacity: 0; fill-rule: nonzero; opacity: 1;"  transform=" translate(0, 0)" d="M -127.74973 100.01412 L -117.7804 88.49016 L -98.19806 73.74189 L -41.85403 31.306849999999997 L 97.25989000000001 -75.51549 C 97.25989000000001 -75.51549 120.77514000000002 -94.6887 127.74973000000001 -100.01411" stroke-linecap="round" />
</g>
<g transform="matrix(1 0 0 1 259.4955746216 201.289436009)" id="ykctxkb4o5l8CJdpRiWox"  >
<path style="stroke: rgb(255,255,255); stroke-width: 1; stroke-dasharray: none; stroke-linecap: butt; stroke-dashoffset: 0; stroke-linejoin: miter; stroke-miterlimit: 4; fill: rgb(255,255,255); fill-opacity: 0; fill-rule: nonzero; opacity: 1;"  transform=" translate(0, 0)" d="M -132.10127 104.47811 L -122.13194 92.95415 L -102.5496 78.20588 L -46.20557 35.77083999999999 L 90.96612000000002 -69.56011000000001 L 92.90835000000001 -71.0515 C 92.90835000000001 -71.0515 93.81499000000001 -71.84228 95.35702 -73.18368000000001 C 103.00732 -79.83861000000002 126.29669000000001 -100.04604 132.10128 -104.47811000000002" stroke-linecap="round" />
</g>
</svg>