<?xml version="1.0" encoding="UTF-8" standalone="no" ?>
<!DOCTYPE svg PUBLIC "-//W3C//DTD SVG 1.1//EN" "http://www.w3.org/Graphics/SVG/1.1/DTD/svg11.dtd">
<svg xmlns="http://www.w3.org/2000/svg" xmlns:xlink="http://www.w3.org/1999/xlink" version="1.1" width="150" height="500" viewBox="0 0 150 500" xml:space="preserve">
<desc>Created with Fabric.js 5.3.0</desc>
<defs>
</defs>
<g transform="matrix(-0.0035065471 -0.5384889474 0.5150688112 0.0033415603 75.5945639864 256.075075498)" id="LRZr1XRhHsTx44QqEcARp"  >
<path style="stroke: rgb(124,74,95); stroke-width: 0; stroke-dasharray: none; stroke-linecap: butt; stroke-dashoffset: 0; stroke-linejoin: miter; stroke-miterlimit: 4; fill: none; fill-rule: nonzero; opacity: 1;"  transform=" translate(0, 0)" d="M -450 -253.5 L 450 -253.5 L 450 253.5 L -450 253.5 z" stroke-linecap="round" />
</g>
<g transform="matrix(0.6905158697 -0.9163455092 0.9288218387 0.6999174584 50.2822828708 425.8267447819)" id="w_9GBTWC-mNpYgz0QQDkE"  >
<path style="stroke: rgb(252,242,232); stroke-width: 0; stroke-dasharray: none; stroke-linecap: butt; stroke-dashoffset: 0; stroke-linejoin: miter; stroke-miterlimit: 4; fill: rgb(29,28,20); fill-rule: nonzero; opacity: 1;"  transform=" translate(0, 0)" d="M 0 -3.19905 C 1.76588 -3.19905 3.19905 -1.7658700000000003 3.19905 0 C 3.19905 1.76588 1.7658700000000003 3.19905 0 3.19905 C -1.76588 3.19905 -3.19905 1.7658700000000003 -3.19905 0 C -3.19905 -1.76588 -1.7658700000000003 -3.19905 0 -3.19905 z" stroke-linecap="round" />
</g>
<g transform="matrix(0.5766281368 -0.7652113829 0.7740251611 0.583269795 50.6904682063 408.2308825959)" id="oizOlSXMh6X0nVQGayoHB"  >
<path style="stroke: rgb(252,242,232); stroke-width: 0; stroke-dasharray: none; stroke-linecap: butt; stroke-dashoffset: 0; stroke-linejoin: miter; stroke-miterlimit: 4; fill: rgb(29,28,20); fill-rule: nonzero; opacity: 1;"  transform=" translate(0, 0)" d="M 0 -3.19905 C 1.76588 -3.19905 3.19905 -1.7658700000000003 3.19905 0 C 3.19905 1.76588 1.7658700000000003 3.19905 0 3.19905 C -1.76588 3.19905 -3.19905 1.7658700000000003 -3.19905 0 C -3.19905 -1.76588 -1.7658700000000003 -3.19905 0 -3.19905 z" stroke-linecap="round" />
</g>
<g transform="matrix(0.6905158697 -0.9163455092 0.9288218387 0.6999174584 87.3848069892 427.4480076374)" id="SoaTk8sKW6RXRoemFCi9o"  >
<path style="stroke: rgb(252,242,232); stroke-width: 0; stroke-dasharray: none; stroke-linecap: butt; stroke-dashoffset: 0; stroke-linejoin: miter; stroke-miterlimit: 4; fill: rgb(16,12,7); fill-rule: nonzero; opacity: 1;"  transform=" translate(0, 0)" d="M 0 -3.19905 C 1.76588 -3.19905 3.19905 -1.7658700000000003 3.19905 0 C 3.19905 1.76588 1.7658700000000003 3.19905 0 3.19905 C -1.76588 3.19905 -3.19905 1.7658700000000003 -3.19905 0 C -3.19905 -1.76588 -1.7658700000000003 -3.19905 0 -3.19905 z" stroke-linecap="round" />
</g>
<g transform="matrix(0.6905158697 -0.9163455092 0.9288218387 0.6999174584 83.6965752313 407.6717704895)" id="xAG6y7eeHh-JPUwpAJop0"  >
<path style="stroke: rgb(252,242,232); stroke-width: 0; stroke-dasharray: none; stroke-linecap: butt; stroke-dashoffset: 0; stroke-linejoin: miter; stroke-miterlimit: 4; fill: rgb(16,12,7); fill-rule: nonzero; opacity: 1;"  transform=" translate(0, 0)" d="M 0 -3.19905 C 1.76588 -3.19905 3.19905 -1.7658700000000003 3.19905 0 C 3.19905 1.76588 1.7658700000000003 3.19905 0 3.19905 C -1.76588 3.19905 -3.19905 1.7658700000000003 -3.19905 0 C -3.19905 -1.76588 -1.7658700000000003 -3.19905 0 -3.19905 z" stroke-linecap="round" />
</g>
<g transform="matrix(0.6905158697 -0.9163455092 0.9288218387 0.6999174584 92.2804711921 364.1095222993)" id="jN8WvmGY0WuOPIE6Z-guu"  >
<path style="stroke: rgb(252,242,232); stroke-width: 0; stroke-dasharray: none; stroke-linecap: butt; stroke-dashoffset: 0; stroke-linejoin: miter; stroke-miterlimit: 4; fill: rgb(252,242,232); fill-rule: nonzero; opacity: 1;"  transform=" translate(0, 0)" d="M -16.19778 34.25529 C -15.23675 36.073710000000005 -13.350410000000002 37.233630000000005 -11.272360000000003 37.28396 C -9.194310000000002 37.33429 -7.252550000000003 36.267070000000004 -6.202240000000002 34.49736 L 26.43311 -20.49127 L 26.43311 -20.49127 C 27.23668 -21.85183 27.473969999999998 -23.46687 27.09504 -24.99654 C 26.732100000000003 -26.46164 26.46942 -27.25328 26.46942 -29.52504 C 26.46942 -31.34835 27.312269999999998 -33.71162 28.13176 -35.63709 L 28.13176 -35.63709 C 28.35021 -36.15037 28.17826 -36.74447 27.71802 -37.06655 C 27.25778 -37.38863 26.6326 -37.35238 26.21378 -36.97932 L -28.225810000000003 11.496380000000002 z" stroke-linecap="round" />
</g>
<g transform="matrix(0.9215322603 -1.222914614 1.2751833049 0.9609195441 68.2985092359 390.0160928985)" id="bhW4fFxBUAvsvfk4Ki3F8"  >
<path style="stroke: rgb(0,0,0); stroke-width: 0; stroke-dasharray: none; stroke-linecap: butt; stroke-dashoffset: 0; stroke-linejoin: miter; stroke-miterlimit: 4; fill: rgb(252,237,218); fill-rule: nonzero; opacity: 1;"  transform=" translate(0, 0)" d="M -0.74513 -13.55178 C -1.48603 -14.44866 -2.8361 -14.618350000000001 -3.79298 -13.93487 L -12.46564 -7.7401100000000005 L -12.46564 -7.7401100000000005 C -13.54663 -6.96797 -13.78696 -5.509360000000001 -13.00689 -4.4552000000000005 L 0.04569000000000045 13.183419999999998 L 0.04569000000000045 13.183419999999998 C 0.5180400000000005 13.821719999999997 1.2491800000000004 14.239379999999999 2.0593900000000005 14.333719999999998 C 2.8696000000000006 14.428059999999999 3.6837200000000005 14.190319999999998 4.301620000000001 13.678959999999998 L 12.36758 7.003679999999998 L 12.36758 7.003679999999998 C 13.65166 5.940989999999998 13.83382 4.096399999999998 12.78058 2.821439999999998 z" stroke-linecap="round" />
</g>
<g transform="matrix(0.9215322603 -1.2229146139 1.2751833049 0.960919544 67.2754179062 337.6808677409)" id="2HYf7IWvslfScIu1YVVAB"  >
<path style="stroke: rgb(0,0,0); stroke-width: 0; stroke-dasharray: none; stroke-linecap: butt; stroke-dashoffset: 0; stroke-linejoin: miter; stroke-miterlimit: 4; fill: rgb(252,237,218); fill-rule: nonzero; opacity: 1;"  transform=" translate(0, 0)" d="M -0.74513 -13.55178 C -1.48603 -14.44866 -2.8361 -14.618350000000001 -3.79298 -13.93487 L -12.46564 -7.7401100000000005 L -12.46564 -7.7401100000000005 C -13.54663 -6.96797 -13.78696 -5.509360000000001 -13.00689 -4.4552000000000005 L 0.04569000000000045 13.183419999999998 L 0.04569000000000045 13.183419999999998 C 0.5180400000000005 13.821719999999997 1.2491800000000004 14.239379999999999 2.0593900000000005 14.333719999999998 C 2.8696000000000006 14.428059999999999 3.6837200000000005 14.190319999999998 4.301620000000001 13.678959999999998 L 12.36758 7.003679999999998 L 12.36758 7.003679999999998 C 13.65166 5.940989999999998 13.83382 4.096399999999998 12.78058 2.821439999999998 z" stroke-linecap="round" />
</g>
<g transform="matrix(0.6905158697 -0.9163455092 0.9288218387 0.6999174584 73.8382745984 394.5668879416)" id="2sdjrf2_S5o8HWE6ZJSSf"  >
<radialGradient id="SVGID_1228" gradientUnits="userSpaceOnUse" gradientTransform="matrix(1 0 0 1 -82.4894766375 -85.346446444)"  cx="82.48947663749726" cy="85.34644644396118" r="83.98947663749726" fx="82.48947663749726" fy="85.34644644396118">
<stop offset="0%" style="stop-color:#FFAC00;stop-opacity: 1"/>
<stop offset="50.184992012538345%" style="stop-color:#FF9200;stop-opacity: 1"/>
<stop offset="100%" style="stop-color:#620D0D;stop-opacity: 1"/>
</radialGradient>
<path style="stroke: rgb(179,83,79); stroke-width: 4; stroke-dasharray: none; stroke-linecap: butt; stroke-dashoffset: 0; stroke-linejoin: miter; stroke-miterlimit: 4; fill: url(#SVGID_1228); fill-rule: nonzero; opacity: 1;"  transform=" translate(0, 0)" d="M 64.13276 -42.18771 L 62.19509000000001 -39.20053 L 62.19509000000001 -39.20053 C 60.37481000000001 -36.39432 59.84114000000001 -32.95996 60.72572000000001 -29.74465 C 61.61030000000001 -26.52934 63.83078000000001 -23.83247 66.83939000000001 -22.31932 C 68.00601 -21.732580000000002 68.87738 -21.386760000000002 70.46723000000001 -20.733310000000003 C 72.99232000000002 -19.695460000000004 75.48702000000002 -19.398340000000005 77.93527000000002 -19.810840000000002 L 77.93527000000002 -19.810840000000002 C 79.63842000000001 -20.097800000000003 81.33175000000001 -19.253510000000002 82.10769000000002 -17.730470000000004 C 82.88363000000003 -16.207430000000002 82.56011000000002 -14.363040000000003 81.31053000000001 -13.185810000000004 L 80.18672000000001 -12.126800000000003 L 80.18672000000001 -12.126800000000003 C 74.15875000000001 -6.446410000000003 66.89845000000001 -2.195260000000003 58.95678000000001 0.304039999999997 L 55.08095000000001 1.5237899999999969 L 48.53312000000001 3.2088199999999967 L 48.53312000000001 3.2088199999999967 C 43.24116000000001 4.597259999999997 39.15641000000001 8.751319999999996 37.910280000000014 14.011919999999996 C 34.25657000000002 29.436249999999994 34.11720000000001 42.05846 21.224440000000016 59.10062 C 11.592640000000015 71.83231 1.557290000000016 76.56584 -10.757439999999985 82.83535 C -16.527639999999984 85.77314000000001 -22.192279999999982 85.61879 -28.624579999999984 84.87617 C -36.544629999999984 83.96179000000001 -46.578369999999985 81.30223000000001 -51.92411999999999 75.38731 C -51.92411999999999 75.38731 -58.101669999999984 68.58157 -61.14434999999999 65.22949 L -61.14434999999999 65.22949 C -67.91793999999999 57.76711 -73.43857999999999 49.284259999999996 -77.49723999999999 40.10214 L -77.72936999999999 39.576989999999995 L -77.72936999999999 39.576989999999995 C -81.31420999999999 31.466819999999995 -82.92792999999999 22.642239999999994 -82.44174999999998 13.807479999999995 L -82.03897999999998 6.488479999999995 L -82.03897999999998 6.488479999999995 C -81.85762999999999 3.193089999999995 -81.23651999999998 -0.0643100000000052 -80.19171999999998 -3.199450000000005 L -79.99488999999997 -3.790060000000005 L -79.99488999999997 -3.790060000000005 C -78.51970999999998 -8.216640000000005 -76.17967999999998 -12.315170000000006 -73.10704999999997 -15.854040000000005 L -62.27002999999997 -28.335450000000005 L -62.27002999999997 -28.335450000000005 C -59.921589999999966 -31.040240000000004 -57.10770999999997 -33.31490000000001 -53.95786999999997 -35.05476 L -53.95786999999997 -35.05476 L -53.95786999999997 -35.05476 C -44.06927999999997 -40.516890000000004 -33.13752999999997 -43.89087 -21.856689999999972 -44.96248 L -21.43214999999997 -45.00281 L -21.43214999999997 -45.00281 C -20.930919999999972 -45.050419999999995 -20.42511999999997 -45.01105 -19.937659999999973 -44.886469999999996 L -19.481469999999973 -44.76987999999999 L -19.481469999999973 -44.76987999999999 C -6.398779999999974 -41.426249999999996 7.124510000000026 -48.40187999999999 11.806810000000027 -60.909099999999995 L 15.169550000000028 -69.89157 L 15.169550000000028 -69.89157 C 15.552160000000027 -70.91358 16.089490000000026 -71.87251 16.763270000000027 -72.73572 L 18.08990000000003 -74.43533000000001 L 18.08990000000003 -74.43533000000001 C 25.465880000000027 -83.88503 38.10774000000003 -87.6752 49.56596000000003 -83.87218000000001 L 50.40051000000003 -83.59519000000002 L 64.13276000000003 -73.47614000000002 L 74.69176000000003 -58.433520000000016 L 74.69176000000003 -58.433520000000016 C 75.72336000000003 -56.96388000000002 75.60485000000003 -54.98934000000001 74.40468000000003 -53.650070000000014 z" stroke-linecap="round" />
</g>
<g transform="matrix(0.6905158697 -0.9163455092 0.9288218387 0.6999174584 66.7716201923 389.2417818931)" id="jI6tmPVgRftbM_-lyLZso"  >
<path style="stroke: rgb(0,0,0); stroke-width: 2; stroke-dasharray: none; stroke-linecap: butt; stroke-dashoffset: 0; stroke-linejoin: miter; stroke-miterlimit: 4; fill: rgb(13,9,7); fill-rule: nonzero; opacity: 1;"  transform=" translate(0, 0)" d="M -0.67939 -13.47393 C -1.4573 -14.41561 -2.8448900000000004 -14.594809999999999 -3.84227 -13.88239 L -12.33194 -7.818339999999999 L -12.33194 -7.818339999999999 C -12.8797 -7.427079999999999 -13.24696 -6.836709999999999 -13.35254 -6.177709999999999 C -13.45812 -5.518719999999999 -13.29332 -4.845369999999999 -12.89456 -4.306519999999999 L -0.02783999999999942 13.080940000000002 L -0.02783999999999942 13.080940000000002 C 0.47104000000000057 13.755110000000002 1.2309500000000007 14.195010000000002 2.0708300000000004 14.295840000000002 C 2.9107100000000004 14.396670000000002 3.7553800000000006 14.149410000000001 4.40359 13.612960000000001 L 12.2246 7.140400000000001 L 12.2246 7.140400000000001 C 13.58337 6.015900000000001 13.77481 4.023240000000001 12.65437 2.666920000000001 z" stroke-linecap="round" />
</g>
<g transform="matrix(0.6905158697 -0.9163455092 0.9288218387 0.6999174584 65.232891264 337.5908309407)" id="D6WlACHH8t-iBTNfbv_0P"  >
<path style="stroke: rgb(0,0,0); stroke-width: 2; stroke-dasharray: none; stroke-linecap: butt; stroke-dashoffset: 0; stroke-linejoin: miter; stroke-miterlimit: 4; fill: rgb(13,9,7); fill-rule: nonzero; opacity: 1;"  transform=" translate(0, 0)" d="M -0.67939 -13.47393 C -1.4573 -14.41561 -2.8448900000000004 -14.594809999999999 -3.84227 -13.88239 L -12.33194 -7.818339999999999 L -12.33194 -7.818339999999999 C -12.8797 -7.427079999999999 -13.24696 -6.836709999999999 -13.35254 -6.177709999999999 C -13.45812 -5.518719999999999 -13.29332 -4.845369999999999 -12.89456 -4.306519999999999 L -0.02783999999999942 13.080940000000002 L -0.02783999999999942 13.080940000000002 C 0.47104000000000057 13.755110000000002 1.2309500000000007 14.195010000000002 2.0708300000000004 14.295840000000002 C 2.9107100000000004 14.396670000000002 3.7553800000000006 14.149410000000001 4.40359 13.612960000000001 L 12.2246 7.140400000000001 L 12.2246 7.140400000000001 C 13.58337 6.015900000000001 13.77481 4.023240000000001 12.65437 2.666920000000001 z" stroke-linecap="round" />
</g>
<g transform="matrix(0.6905158697 -0.9163455092 0.9288218387 0.6999174584 31.4642627727 314.6379632001)" id="OMfI0Mc6xpQfwybj0O3Hc"  >
<path style="stroke: rgb(206,127,236); stroke-width: 0; stroke-dasharray: none; stroke-linecap: butt; stroke-dashoffset: 0; stroke-linejoin: miter; stroke-miterlimit: 4; fill: rgb(249,223,187); fill-rule: nonzero; opacity: 1;"  transform=" translate(0, 0)" d="M 0 -7.52841 C 4.15568 -7.52841 7.52841 -4.15568 7.52841 0 C 7.52841 4.15568 4.15568 7.52841 0 7.52841 C -4.15568 7.52841 -7.52841 4.15568 -7.52841 0 C -7.52841 -4.15568 -4.15568 -7.52841 0 -7.52841 z" stroke-linecap="round" />
</g>
<g transform="matrix(-0.9288218387 -0.6999174584 0.6905158697 -0.9163455092 31.4642627727 314.6379632001)" id="Z6m6dPonJEc0oQcrBjJjU"  >
<path style="stroke: rgb(179,83,79); stroke-width: 0; stroke-dasharray: none; stroke-linecap: butt; stroke-dashoffset: 0; stroke-linejoin: miter; stroke-miterlimit: 4; fill: rgb(149,113,68); fill-rule: nonzero; opacity: 1;"  transform=" translate(0, 0)" d="M 0 -4.18719 C 2.31133 -4.18719 4.18719 -2.31133 4.18719 0 C 4.18719 2.31133 2.31133 4.18719 0 4.18719 C -2.31133 4.18719 -4.18719 2.31133 -4.18719 0 C -4.18719 -2.31133 -2.31133 -4.18719 0 -4.18719 z" stroke-linecap="round" />
</g>
<g transform="matrix(-0.1083694432 -0.5381790813 1.1384864489 -0.2133590007 30.019650596 314.9428967491)" id="E3T9InbG99NM9mQfD3wp1"  >
<path style="stroke: rgb(179,83,79); stroke-width: 0; stroke-dasharray: none; stroke-linecap: butt; stroke-dashoffset: 0; stroke-linejoin: miter; stroke-miterlimit: 4; fill: rgb(84,66,43); fill-rule: nonzero; opacity: 1;"  transform=" translate(0, 0)" d="M -3.01011 -1.74936 C -3.01011 -2.4483800000000002 -1.8249 -3.01011 -0.3500300000000003 -3.01011 L 0.3140099999999997 -3.01011 L 0.3140099999999997 -3.01011 C 1.0257099999999997 -3.01011 1.7115599999999997 -2.87493 2.2182299999999997 -2.6348000000000003 C 2.7249 -2.39467 3.0101099999999996 -2.0696000000000003 3.0101099999999996 -1.7322900000000003 L 3.0101099999999996 1.7493599999999998 L 3.0101099999999996 1.7493599999999998 C 3.0101099999999996 2.44838 1.8248999999999995 3.01011 0.35002999999999984 3.01011 L -0.3140100000000001 3.01011 L -0.3140100000000001 3.01011 C -1.0257100000000001 3.01011 -1.7115600000000002 2.87493 -2.21823 2.6348000000000003 C -2.7249 2.39467 -3.01011 2.0696000000000003 -3.01011 1.7322900000000003 z" stroke-linecap="round" />
</g>
<g transform="matrix(0.1602058958 -0.0668952222 0.0692333764 0.1604929851 27.2847649042 315.6921918712)" id="4w3Ze-PtdEQ9A4gwoxZNg"  >
<path style="stroke: rgb(179,83,79); stroke-width: 0; stroke-dasharray: none; stroke-linecap: butt; stroke-dashoffset: 0; stroke-linejoin: miter; stroke-miterlimit: 4; fill: rgb(59,44,26); fill-rule: nonzero; opacity: 1;"  transform=" translate(0, 0)" d="M 0 -14.20455 C 7.84091 -14.20455 14.20455 -7.840909999999999 14.20455 0 C 14.20455 7.84091 7.840909999999999 14.20455 0 14.20455 C -7.84091 14.20455 -14.20455 7.840909999999999 -14.20455 0 C -14.20455 -7.84091 -7.840909999999999 -14.20455 0 -14.20455 z" stroke-linecap="round" />
</g>
<g transform="matrix(0.6905158697 -0.9163455092 0.9288218387 0.6999174584 68.4684231154 426.3918243082)" id="YUH34Tb1l40jmv12iMHTm"  >
<path style="stroke: rgb(252,242,232); stroke-width: 0; stroke-dasharray: none; stroke-linecap: butt; stroke-dashoffset: 0; stroke-linejoin: miter; stroke-miterlimit: 4; fill: rgb(16,12,7); fill-rule: nonzero; opacity: 1;"  transform=" translate(0, 0)" d="M 0.45089 -3.85701 L -4.65651 -10.82902 L -4.65651 -10.82902 C -4.85958 -11.10623 -5.1674299999999995 -11.29087 -5.51035 -11.34113 C -5.85327 -11.39139 -6.20223 -11.30302 -6.47821 -11.096029999999999 L -7.7489099999999995 -10.142999999999999 L -7.7489099999999995 -10.142999999999999 C -8.578339999999999 -9.520929999999998 -8.78056 -8.37277 -8.212439999999999 -7.511129999999999 L 3.56456 10.350660000000001 L 3.56456 10.350660000000001 C 3.92225 10.893150000000002 4.50312 11.253560000000002 5.15367 11.336640000000001 C 5.80422 11.419720000000002 6.45896 11.2171 6.94487 10.782350000000001 L 7.58686 10.207930000000001 L 7.58686 10.207930000000001 C 8.67616 9.23329 8.84858 7.6065000000000005 7.98719 6.430640000000001 z" stroke-linecap="round" />
</g>
<g transform="matrix(0.6240424716 -0.9629371114 0.9747272275 0.6342914632 66.2066192506 407.8408493095)" id="ZJAujRJHmCfPrNoTtM31H"  >
<path style="stroke: rgb(252,242,232); stroke-width: 0; stroke-dasharray: none; stroke-linecap: butt; stroke-dashoffset: 0; stroke-linejoin: miter; stroke-miterlimit: 4; fill: rgb(16,12,7); fill-rule: nonzero; opacity: 1;"  transform=" translate(0, 0)" d="M 0.45092 -3.85701 L -4.65562 -10.82784 L -4.65562 -10.82784 C -4.85889 -11.10531 -5.1668899999999995 -11.29031 -5.50985 -11.3409 C -5.85281 -11.39149 -6.20169 -11.30341 -6.47743 -11.096599999999999 L -7.75065 -10.14168 L -7.75065 -10.14168 C -8.5792 -9.52027 -8.78034 -8.37248 -8.2118 -7.51019 L 3.5631000000000004 10.34841 L 3.5631000000000004 10.34841 C 3.9211000000000005 10.89138 4.502210000000001 11.2525 5.15278 11.336279999999999 C 5.80335 11.42006 6.45789 11.218079999999999 6.94334 10.783729999999998 L 7.58896 10.206069999999999 L 7.58896 10.206069999999999 C 8.677150000000001 9.23242 8.84815 7.605899999999998 7.98604 6.429049999999998 z" stroke-linecap="round" />
</g>
<g transform="matrix(0.6905158697 -0.9163455092 0.9288218387 0.6999174584 31.3217930089 431.0937006319)" id="TDNMvUSrZNgzUxadMd0Tm"  >
<path style="stroke: rgb(252,242,232); stroke-width: 1; stroke-dasharray: none; stroke-linecap: butt; stroke-dashoffset: 0; stroke-linejoin: miter; stroke-miterlimit: 4; fill: rgb(255,255,255); fill-opacity: 0; fill-rule: nonzero; opacity: 1;"  transform=" translate(0, 0)" d="M 0 0" stroke-linecap="round" />
</g>
<g transform="matrix(0.6905158697 -0.9163455092 0.9288218387 0.6999174584 106.5303777563 460.794070388)" id="6qORo2L1VCFVW-PuCPpet"  >
<path style="stroke: rgb(252,242,232); stroke-width: 0; stroke-dasharray: none; stroke-linecap: butt; stroke-dashoffset: 0; stroke-linejoin: miter; stroke-miterlimit: 4; fill: rgb(243,204,145); fill-rule: nonzero; opacity: 1;"  transform=" translate(0, 0)" d="M 0 -5.13834 C 2.83636 -5.13834 5.13834 -2.8363600000000004 5.13834 0 C 5.13834 2.83636 2.8363600000000004 5.13834 0 5.13834 C -2.83636 5.13834 -5.13834 2.8363600000000004 -5.13834 0 C -5.13834 -2.83636 -2.8363600000000004 -5.13834 0 -5.13834 z" stroke-linecap="round" />
</g>
<g transform="matrix(0.4249328417 -0.5639049271 0.5715826683 0.4307184347 106.5303777563 460.794070388)" id="dRJsBOHIfFHQVhwxFTOv_"  >
<path style="stroke: rgb(252,242,232); stroke-width: 0; stroke-dasharray: none; stroke-linecap: butt; stroke-dashoffset: 0; stroke-linejoin: miter; stroke-miterlimit: 4; fill: rgb(182,119,51); fill-rule: nonzero; opacity: 1;"  transform=" translate(0, 0)" d="M 0 -5.13834 C 2.83636 -5.13834 5.13834 -2.8363600000000004 5.13834 0 C 5.13834 2.83636 2.8363600000000004 5.13834 0 5.13834 C -2.83636 5.13834 -5.13834 2.8363600000000004 -5.13834 0 C -5.13834 -2.83636 -2.8363600000000004 -5.13834 0 -5.13834 z" stroke-linecap="round" />
</g>
<g transform="matrix(0.2287825096 -0.3036046447 0.2744790769 0.20683482 105.6256770912 461.3335492413)" id="EUMmRz_u0mCMIYuyCCIFu"  >
<path style="stroke: rgb(252,242,232); stroke-width: 0; stroke-dasharray: none; stroke-linecap: butt; stroke-dashoffset: 0; stroke-linejoin: miter; stroke-miterlimit: 4; fill: rgb(231,179,100); fill-rule: nonzero; opacity: 1;"  transform=" translate(0, 0)" d="M 0 -5.13834 C 2.83636 -5.13834 5.13834 -2.8363600000000004 5.13834 0 C 5.13834 2.83636 2.8363600000000004 5.13834 0 5.13834 C -2.83636 5.13834 -5.13834 2.8363600000000004 -5.13834 0 C -5.13834 -2.83636 -2.8363600000000004 -5.13834 0 -5.13834 z" stroke-linecap="round" />
</g>
<g transform="matrix(0.6905158697 -0.9163455092 0.9288218387 0.6999174584 105.3873976355 431.5964492089)" id="ymBXNweZmJoUUSc8MVBuk"  >
<path style="stroke: rgb(252,242,232); stroke-width: 0; stroke-dasharray: none; stroke-linecap: butt; stroke-dashoffset: 0; stroke-linejoin: miter; stroke-miterlimit: 4; fill: rgb(243,204,145); fill-rule: nonzero; opacity: 1;"  transform=" translate(0, 0)" d="M 0 -5.13834 C 2.83636 -5.13834 5.13834 -2.8363600000000004 5.13834 0 C 5.13834 2.83636 2.8363600000000004 5.13834 0 5.13834 C -2.83636 5.13834 -5.13834 2.8363600000000004 -5.13834 0 C -5.13834 -2.83636 -2.8363600000000004 -5.13834 0 -5.13834 z" stroke-linecap="round" />
</g>
<g transform="matrix(0.4249328417 -0.5639049271 0.5715826683 0.4307184347 105.3873976355 431.5964492089)" id="QU8te50yKjzeya18Cw53a"  >
<path style="stroke: rgb(252,242,232); stroke-width: 0; stroke-dasharray: none; stroke-linecap: butt; stroke-dashoffset: 0; stroke-linejoin: miter; stroke-miterlimit: 4; fill: rgb(182,119,51); fill-rule: nonzero; opacity: 1;"  transform=" translate(0, 0)" d="M 0 -5.13834 C 2.83636 -5.13834 5.13834 -2.8363600000000004 5.13834 0 C 5.13834 2.83636 2.8363600000000004 5.13834 0 5.13834 C -2.83636 5.13834 -5.13834 2.8363600000000004 -5.13834 0 C -5.13834 -2.83636 -2.8363600000000004 -5.13834 0 -5.13834 z" stroke-linecap="round" />
</g>
<g transform="matrix(0.2287825096 -0.3036046447 0.2744790769 0.2068348201 104.4826969705 432.1359280622)" id="q-hytenvtds3VVrwC-EGN"  >
<path style="stroke: rgb(252,242,232); stroke-width: 0; stroke-dasharray: none; stroke-linecap: butt; stroke-dashoffset: 0; stroke-linejoin: miter; stroke-miterlimit: 4; fill: rgb(231,179,100); fill-rule: nonzero; opacity: 1;"  transform=" translate(0, 0)" d="M 0 -5.13834 C 2.83636 -5.13834 5.13834 -2.8363600000000004 5.13834 0 C 5.13834 2.83636 2.8363600000000004 5.13834 0 5.13834 C -2.83636 5.13834 -5.13834 2.8363600000000004 -5.13834 0 C -5.13834 -2.83636 -2.8363600000000004 -5.13834 0 -5.13834 z" stroke-linecap="round" />
</g>
<g transform="matrix(0.6905158697 -0.9163455092 0.9288218387 0.6999174584 125.9268246526 419.0135553489)" id="R-DladFikmEztv9brNoq9"  >
<path style="stroke: rgb(252,242,232); stroke-width: 0; stroke-dasharray: none; stroke-linecap: butt; stroke-dashoffset: 0; stroke-linejoin: miter; stroke-miterlimit: 4; fill: rgb(243,204,145); fill-rule: nonzero; opacity: 1;"  transform=" translate(0, 0)" d="M 0 -5.13834 C 2.83636 -5.13834 5.13834 -2.8363600000000004 5.13834 0 C 5.13834 2.83636 2.8363600000000004 5.13834 0 5.13834 C -2.83636 5.13834 -5.13834 2.8363600000000004 -5.13834 0 C -5.13834 -2.83636 -2.8363600000000004 -5.13834 0 -5.13834 z" stroke-linecap="round" />
</g>
<g transform="matrix(0.4249328417 -0.5639049271 0.5715826683 0.4307184347 125.9268246526 419.0135553489)" id="HPtb1P6LPtuNKE3RICI_I"  >
<path style="stroke: rgb(252,242,232); stroke-width: 0; stroke-dasharray: none; stroke-linecap: butt; stroke-dashoffset: 0; stroke-linejoin: miter; stroke-miterlimit: 4; fill: rgb(182,119,51); fill-rule: nonzero; opacity: 1;"  transform=" translate(0, 0)" d="M 0 -5.13834 C 2.83636 -5.13834 5.13834 -2.8363600000000004 5.13834 0 C 5.13834 2.83636 2.8363600000000004 5.13834 0 5.13834 C -2.83636 5.13834 -5.13834 2.8363600000000004 -5.13834 0 C -5.13834 -2.83636 -2.8363600000000004 -5.13834 0 -5.13834 z" stroke-linecap="round" />
</g>
<g transform="matrix(0.2287825096 -0.3036046447 0.2744790769 0.2068348201 125.0221239876 419.5530342022)" id="IpbCt4-Jfah1lDn99Fqlm"  >
<path style="stroke: rgb(252,242,232); stroke-width: 0; stroke-dasharray: none; stroke-linecap: butt; stroke-dashoffset: 0; stroke-linejoin: miter; stroke-miterlimit: 4; fill: rgb(231,179,100); fill-rule: nonzero; opacity: 1;"  transform=" translate(0, 0)" d="M 0 -5.13834 C 2.83636 -5.13834 5.13834 -2.8363600000000004 5.13834 0 C 5.13834 2.83636 2.8363600000000004 5.13834 0 5.13834 C -2.83636 5.13834 -5.13834 2.8363600000000004 -5.13834 0 C -5.13834 -2.83636 -2.8363600000000004 -5.13834 0 -5.13834 z" stroke-linecap="round" />
</g>
<g transform="matrix(0.7167402143 -0.9511463898 0.9640965442 0.7264988555 84.6104944851 30.9603873042)" id="TJKYDuBpse8DfceI1EfIc"  >
<path style="stroke: rgb(255,255,255); stroke-width: 0; stroke-dasharray: none; stroke-linecap: butt; stroke-dashoffset: 0; stroke-linejoin: miter; stroke-miterlimit: 4; fill: rgb(243,220,186); fill-rule: nonzero; opacity: 1;"  transform=" translate(0, 0)" d="M -4.85811 -3.73674 L -3.81116 -2.15045 L -4.11561 -1.6377000000000002 L -4.11561 -1.6377000000000002 C -4.30157 -1.3245000000000002 -4.31349 -0.9395400000000002 -4.1472500000000005 -0.6157300000000001 L -1.7833100000000006 3.98881 L -1.7833100000000006 3.98881 C -1.5347800000000007 4.47291 -1.0778500000000006 4.82031 -0.5400400000000005 4.93408 C -0.002220000000000555 5.0478499999999995 0.5588999999999995 4.9158 0.9867599999999994 4.57478 L 4.3591299999999995 1.8868999999999998 L 4.3591299999999995 1.8868999999999998 C 4.67345 1.6363699999999999 4.856719999999999 1.2595199999999998 4.85809 0.8608699999999998 C 4.8594599999999994 0.4622199999999998 4.6788 0.08414999999999984 4.36621 -0.16848000000000019 L 1.1632399999999996 -2.7570300000000003 L 1.1632399999999996 -2.7570300000000003 C 0.5316499999999996 -3.2674700000000003 -0.2596200000000004 -3.54639 -1.0760800000000006 -3.54639 L -1.0760800000000006 -3.54639 L -1.0760800000000006 -3.54639 C -1.2912000000000006 -3.54639 -1.5054800000000006 -3.52002 -1.7140100000000005 -3.46789 L -2.0345200000000006 -3.38776 L -3.2083800000000005 -4.97405 z" stroke-linecap="round" />
</g>
<g transform="matrix(-0.8135893665 0.8699961014 -0.8838953692 -0.8219408892 41.3741009793 51.6771612324)" id="qZWf6ofUrPwhpdzXVdwqX"  >
<path style="stroke: rgb(255,255,255); stroke-width: 0; stroke-dasharray: none; stroke-linecap: butt; stroke-dashoffset: 0; stroke-linejoin: miter; stroke-miterlimit: 4; fill: rgb(243,220,186); fill-rule: nonzero; opacity: 1;"  transform=" translate(0, 0)" d="M -4.85805 -3.73694 L -3.8111000000000006 -2.15065 L -4.115050000000001 -1.6387300000000002 L -4.115050000000001 -1.6387300000000002 C -4.301310000000001 -1.3250300000000004 -4.313480000000001 -0.9398500000000003 -4.147360000000001 -0.6162800000000002 L -1.781600000000001 3.9918099999999996 L -1.781600000000001 3.9918099999999996 C -1.533310000000001 4.475429999999999 -1.076750000000001 4.821969999999999 -0.5391200000000009 4.93488 C -0.0014900000000008795 5.04779 0.5597499999999991 4.915 0.9881999999999991 4.5735 L 4.35732 1.88821 L 4.35732 1.88821 C 4.67206 1.6373499999999999 4.85598 1.26025 4.858029999999999 0.86154 C 4.86009 0.46282999999999996 4.68007 0.08490999999999993 4.36792 -0.16735999999999995 L 1.1602099999999997 -2.75975 L 1.1602099999999997 -2.75975 C 0.5305499999999997 -3.26862 -0.25858000000000025 -3.54659 -1.07356 -3.54659 L -1.07356 -3.54659 L -1.07356 -3.54659 C -1.2903 -3.54659 -1.50627 -3.52 -1.71651 -3.4674400000000003 L -2.03444 -3.3879600000000005 L -3.2083 -4.9742500000000005 z" stroke-linecap="round" />
</g>
<g transform="matrix(-0.8135893665 0.8699961014 -0.8838953692 -0.8219408892 42.1709857764 35.4305397223)" id="aiJQst7bfNN8DV5t7Ro8u"  >
<path style="stroke: rgb(255,255,255); stroke-width: 0; stroke-dasharray: none; stroke-linecap: butt; stroke-dashoffset: 0; stroke-linejoin: miter; stroke-miterlimit: 4; fill: rgb(243,220,186); fill-rule: nonzero; opacity: 1;"  transform=" translate(0, 0)" d="M -4.85805 -3.73694 L -3.8111000000000006 -2.15065 L -4.115050000000001 -1.6387300000000002 L -4.115050000000001 -1.6387300000000002 C -4.301310000000001 -1.3250300000000004 -4.313480000000001 -0.9398500000000003 -4.147360000000001 -0.6162800000000002 L -1.781600000000001 3.9918099999999996 L -1.781600000000001 3.9918099999999996 C -1.533310000000001 4.475429999999999 -1.076750000000001 4.821969999999999 -0.5391200000000009 4.93488 C -0.0014900000000008795 5.04779 0.5597499999999991 4.915 0.9881999999999991 4.5735 L 4.35732 1.88821 L 4.35732 1.88821 C 4.67206 1.6373499999999999 4.85598 1.26025 4.858029999999999 0.86154 C 4.86009 0.46282999999999996 4.68007 0.08490999999999993 4.36792 -0.16735999999999995 L 1.1602099999999997 -2.75975 L 1.1602099999999997 -2.75975 C 0.5305499999999997 -3.26862 -0.25858000000000025 -3.54659 -1.07356 -3.54659 L -1.07356 -3.54659 L -1.07356 -3.54659 C -1.2903 -3.54659 -1.50627 -3.52 -1.71651 -3.4674400000000003 L -2.03444 -3.3879600000000005 L -3.2083 -4.9742500000000005 z" stroke-linecap="round" />
</g>
<g transform="matrix(0.6905158697 -0.9163455092 0.9288218387 0.6999174584 126.8957798753 449.0253974604)" id="Gc3pWuANLRHMJEjAQcPKb"  >
<path style="stroke: rgb(252,242,232); stroke-width: 0; stroke-dasharray: none; stroke-linecap: butt; stroke-dashoffset: 0; stroke-linejoin: miter; stroke-miterlimit: 4; fill: rgb(243,204,145); fill-rule: nonzero; opacity: 1;"  transform=" translate(0, 0)" d="M 0 -5.13834 C 2.83636 -5.13834 5.13834 -2.8363600000000004 5.13834 0 C 5.13834 2.83636 2.8363600000000004 5.13834 0 5.13834 C -2.83636 5.13834 -5.13834 2.8363600000000004 -5.13834 0 C -5.13834 -2.83636 -2.8363600000000004 -5.13834 0 -5.13834 z" stroke-linecap="round" />
</g>
<g transform="matrix(0.6905158697 -0.9163455092 0.9288218387 0.6999174584 83.5270841045 47.1761574697)" id="6ry4EGr_RozZ_X-9mQjHl"  >
<path style="stroke: rgb(255,255,255); stroke-width: 0; stroke-dasharray: none; stroke-linecap: butt; stroke-dashoffset: 0; stroke-linejoin: miter; stroke-miterlimit: 4; fill: rgb(243,220,186); fill-rule: nonzero; opacity: 1;"  transform=" translate(0, 0)" d="M -4.85811 -3.73674 L -3.81116 -2.15045 L -4.11561 -1.6377000000000002 L -4.11561 -1.6377000000000002 C -4.30157 -1.3245000000000002 -4.31349 -0.9395400000000002 -4.1472500000000005 -0.6157300000000001 L -1.7833100000000006 3.98881 L -1.7833100000000006 3.98881 C -1.5347800000000007 4.47291 -1.0778500000000006 4.82031 -0.5400400000000005 4.93408 C -0.002220000000000555 5.0478499999999995 0.5588999999999995 4.9158 0.9867599999999994 4.57478 L 4.3591299999999995 1.8868999999999998 L 4.3591299999999995 1.8868999999999998 C 4.67345 1.6363699999999999 4.856719999999999 1.2595199999999998 4.85809 0.8608699999999998 C 4.8594599999999994 0.4622199999999998 4.6788 0.08414999999999984 4.36621 -0.16848000000000019 L 1.1632399999999996 -2.7570300000000003 L 1.1632399999999996 -2.7570300000000003 C 0.5316499999999996 -3.2674700000000003 -0.2596200000000004 -3.54639 -1.0760800000000006 -3.54639 L -1.0760800000000006 -3.54639 L -1.0760800000000006 -3.54639 C -1.2912000000000006 -3.54639 -1.5054800000000006 -3.52002 -1.7140100000000005 -3.46789 L -2.0345200000000006 -3.38776 L -3.2083800000000005 -4.97405 z" stroke-linecap="round" />
</g>
<g transform="matrix(0.6905158697 -0.9163455092 0.9288218387 0.6999174584 83.0103668331 63.0545962047)" id="HXuGJ7UKmdUo6spZy0nL9"  >
<path style="stroke: rgb(255,255,255); stroke-width: 0; stroke-dasharray: none; stroke-linecap: butt; stroke-dashoffset: 0; stroke-linejoin: miter; stroke-miterlimit: 4; fill: rgb(243,220,186); fill-rule: nonzero; opacity: 1;"  transform=" translate(0, 0)" d="M -4.85811 -3.73674 L -3.81116 -2.15045 L -4.11561 -1.6377000000000002 L -4.11561 -1.6377000000000002 C -4.30157 -1.3245000000000002 -4.31349 -0.9395400000000002 -4.1472500000000005 -0.6157300000000001 L -1.7833100000000006 3.98881 L -1.7833100000000006 3.98881 C -1.5347800000000007 4.47291 -1.0778500000000006 4.82031 -0.5400400000000005 4.93408 C -0.002220000000000555 5.0478499999999995 0.5588999999999995 4.9158 0.9867599999999994 4.57478 L 4.3591299999999995 1.8868999999999998 L 4.3591299999999995 1.8868999999999998 C 4.67345 1.6363699999999999 4.856719999999999 1.2595199999999998 4.85809 0.8608699999999998 C 4.8594599999999994 0.4622199999999998 4.6788 0.08414999999999984 4.36621 -0.16848000000000019 L 1.1632399999999996 -2.7570300000000003 L 1.1632399999999996 -2.7570300000000003 C 0.5316499999999996 -3.2674700000000003 -0.2596200000000004 -3.54639 -1.0760800000000006 -3.54639 L -1.0760800000000006 -3.54639 L -1.0760800000000006 -3.54639 C -1.2912000000000006 -3.54639 -1.5054800000000006 -3.52002 -1.7140100000000005 -3.46789 L -2.0345200000000006 -3.38776 L -3.2083800000000005 -4.97405 z" stroke-linecap="round" />
</g>
<g transform="matrix(0.4249328417 -0.5639049271 0.5715826683 0.4307184347 126.8957798753 449.0253974604)" id="XfPQOI9DBrmO-GYwGgbLo"  >
<path style="stroke: rgb(252,242,232); stroke-width: 0; stroke-dasharray: none; stroke-linecap: butt; stroke-dashoffset: 0; stroke-linejoin: miter; stroke-miterlimit: 4; fill: rgb(182,119,51); fill-rule: nonzero; opacity: 1;"  transform=" translate(0, 0)" d="M 0 -5.13834 C 2.83636 -5.13834 5.13834 -2.8363600000000004 5.13834 0 C 5.13834 2.83636 2.8363600000000004 5.13834 0 5.13834 C -2.83636 5.13834 -5.13834 2.8363600000000004 -5.13834 0 C -5.13834 -2.83636 -2.8363600000000004 -5.13834 0 -5.13834 z" stroke-linecap="round" />
</g>
<g transform="matrix(0.2287825096 -0.3036046447 0.2744790769 0.2068348201 125.9910792103 449.5648763137)" id="zB-QIZsOK7LCCTpDDZyuZ"  >
<path style="stroke: rgb(252,242,232); stroke-width: 0; stroke-dasharray: none; stroke-linecap: butt; stroke-dashoffset: 0; stroke-linejoin: miter; stroke-miterlimit: 4; fill: rgb(231,179,100); fill-rule: nonzero; opacity: 1;"  transform=" translate(0, 0)" d="M 0 -5.13834 C 2.83636 -5.13834 5.13834 -2.8363600000000004 5.13834 0 C 5.13834 2.83636 2.8363600000000004 5.13834 0 5.13834 C -2.83636 5.13834 -5.13834 2.8363600000000004 -5.13834 0 C -5.13834 -2.83636 -2.8363600000000004 -5.13834 0 -5.13834 z" stroke-linecap="round" />
</g>
<g transform="matrix(-0.8135893665 0.8699961014 -0.8838953692 -0.8219408892 41.2765654702 67.548104356)" id="u13wqYPWdfQ34IU2a5YhL"  >
<path style="stroke: rgb(255,255,255); stroke-width: 0; stroke-dasharray: none; stroke-linecap: butt; stroke-dashoffset: 0; stroke-linejoin: miter; stroke-miterlimit: 4; fill: rgb(243,220,186); fill-rule: nonzero; opacity: 1;"  transform=" translate(0, 0)" d="M -4.85805 -3.73694 L -3.8111000000000006 -2.15065 L -4.115050000000001 -1.6387300000000002 L -4.115050000000001 -1.6387300000000002 C -4.301310000000001 -1.3250300000000004 -4.313480000000001 -0.9398500000000003 -4.147360000000001 -0.6162800000000002 L -1.781600000000001 3.9918099999999996 L -1.781600000000001 3.9918099999999996 C -1.533310000000001 4.475429999999999 -1.076750000000001 4.821969999999999 -0.5391200000000009 4.93488 C -0.0014900000000008795 5.04779 0.5597499999999991 4.915 0.9881999999999991 4.5735 L 4.35732 1.88821 L 4.35732 1.88821 C 4.67206 1.6373499999999999 4.85598 1.26025 4.858029999999999 0.86154 C 4.86009 0.46282999999999996 4.68007 0.08490999999999993 4.36792 -0.16735999999999995 L 1.1602099999999997 -2.75975 L 1.1602099999999997 -2.75975 C 0.5305499999999997 -3.26862 -0.25858000000000025 -3.54659 -1.07356 -3.54659 L -1.07356 -3.54659 L -1.07356 -3.54659 C -1.2903 -3.54659 -1.50627 -3.52 -1.71651 -3.4674400000000003 L -2.03444 -3.3879600000000005 L -3.2083 -4.9742500000000005 z" stroke-linecap="round" />
</g>
<g transform="matrix(0.6905158697 -0.9163455092 0.9288218387 0.6999174584 57.4078743145 422.5529552327)" id="GA4QaD4uuu8nJYWN5Mg6z"  >
<path style="stroke: rgb(252,242,232); stroke-width: 1; stroke-dasharray: none; stroke-linecap: butt; stroke-dashoffset: 0; stroke-linejoin: miter; stroke-miterlimit: 4; fill: rgb(255,255,255); fill-opacity: 0; fill-rule: nonzero; opacity: 1;"  transform=" translate(0, 0)" d="M 0 0" stroke-linecap="round" />
</g>
<g transform="matrix(0.6905158697 -0.9163455092 0.9288218387 0.6999174584 61.3637440491 210.3476397899)" id="lEmJnf_0w26Um7MEFdoIm"  >
<linearGradient id="SVGID_646" gradientUnits="userSpaceOnUse" gradientTransform="matrix(1 0 0 1 -85.5290690066 -69.9497477556)"  x1="-23.486950488676143" y1="69.94974775556992" x2="194.54508850187653" y2="69.94974775556992">
<stop offset="0%" style="stop-color:#674E4E;stop-opacity: 1"/>
<stop offset="65.02525615340889%" style="stop-color:#8C7575;stop-opacity: 1"/>
<stop offset="76.19912140050235%" style="stop-color:#674E4E;stop-opacity: 1"/>
<stop offset="100%" style="stop-color:#674E4E;stop-opacity: 1"/>
</linearGradient>
<path style="stroke: rgb(98,72,66); stroke-width: 1; stroke-dasharray: none; stroke-linecap: butt; stroke-dashoffset: 0; stroke-linejoin: miter; stroke-miterlimit: 4; fill: url(#SVGID_646); fill-rule: nonzero; opacity: 1;"  transform=" translate(0, 0)" d="M -85.52907 53.17981 L 16.62102 -25.83927 L 73.64382 -69.94975 L 85.52907 -56.834999999999994 L -72.17288 69.94974 z" stroke-linecap="round" />
</g>
<g transform="matrix(0.6905158697 -0.9163455092 0.9288218387 0.6999174584 66.7678191803 204.2742044564)" id="Nned30ccWw6b9doeTISeL"  >
<path style="stroke: rgb(98,72,66); stroke-width: 0; stroke-dasharray: none; stroke-linecap: butt; stroke-dashoffset: 0; stroke-linejoin: miter; stroke-miterlimit: 4; fill: rgb(255,255,255); fill-rule: nonzero; opacity: 1;"  transform=" translate(0, 0)" d="M -80.69148 69.02696 L 77.73245000000001 -57.81300999999999 L 65.94035000000001 -71.01792999999999 L 68.71606000000001 -71.01792999999999 L 80.69147000000001 -57.81300999999999 L -79.23476 71.01793 z" stroke-linecap="round" />
</g>
<g transform="matrix(0.6905158697 -0.9163455092 0.9288218387 0.6999174584 58.9376051427 50.9652425397)" id="5d8JSWiXwAFTbDhMV6ka1"  >
<path style="stroke: rgb(5,5,5); stroke-width: 1; stroke-dasharray: none; stroke-linecap: butt; stroke-dashoffset: 0; stroke-linejoin: miter; stroke-miterlimit: 4; fill: rgb(5,5,5); fill-rule: nonzero; opacity: 1;"  transform=" translate(0, 0)" d="M -34.8318 13.68887 L -27.32327 8.16617 L -27.32327 2.206529999999999 L -5.661740000000002 -11.5562 L 12.050699999999999 -24.92142 L 12.050699999999999 -24.92142 C 12.826519999999999 -25.50683 13.808589999999999 -25.75938 14.77535 -25.62209 C 15.74211 -25.48481 16.61212 -24.96925 17.18909 -24.19174 L 18.69124 -22.16749 L 25.919040000000003 -17.588700000000003 C 25.919040000000003 -17.588700000000003 25.6154 -16.803750000000004 26.298000000000002 -16.206490000000002 C 26.980590000000003 -15.609220000000002 28.649420000000003 -15.199630000000003 28.649420000000003 -15.199630000000003 L 31.513670000000005 -9.133440000000004 L 34.57423000000001 -5.118850000000004 L 34.57423000000001 -5.118850000000004 C 34.79663000000001 -4.827030000000003 34.88049000000001 -4.454690000000004 34.804280000000006 -4.0974100000000035 C 34.72807 -3.7401300000000037 34.49922000000001 -3.4327200000000033 34.17647000000001 -3.2540800000000036 C 26.954560000000008 0.7431899999999962 22.987780000000008 2.598569999999996 12.590180000000007 9.369099999999996 C 1.5833500000000065 16.536339999999996 -8.551949999999994 24.732109999999995 -8.551949999999994 24.732109999999995 C -8.551949999999994 24.732109999999995 -11.367499999999994 23.276119999999995 -15.224969999999995 23.276119999999995 C -19.082439999999995 23.276119999999995 -22.922929999999994 25.658649999999994 -22.922929999999994 25.658649999999994 z" stroke-linecap="round" />
</g>
<g transform="matrix(0.5487136376 -0.7281675914 0.6302720935 0.4749440887 50.2092725755 33.5156025949)" id="UPfwQVwT2gEI9DSpRT1Ct"  >
<path style="stroke: rgb(5,5,5); stroke-width: 0; stroke-dasharray: none; stroke-linecap: butt; stroke-dashoffset: 0; stroke-linejoin: miter; stroke-miterlimit: 4; fill: rgb(103,93,85); fill-rule: nonzero; opacity: 1;"  transform=" translate(0, 0)" d="M 0 -3.70615 C 2.0458 -3.70615 3.70615 -2.04579 3.70615 0 C 3.70615 2.0458 2.04579 3.70615 0 3.70615 C -2.0458 3.70615 -3.70615 2.04579 -3.70615 0 C -3.70615 -2.0458 -2.04579 -3.70615 0 -3.70615 z" stroke-linecap="round" />
</g>
<g transform="matrix(-0.5347457496 -0.5514496992 0.1220680757 -0.117384676 48.9352545245 32.5555611326)" id="g4hscVXokZ-Qoc2neUdF7"  >
<path style="stroke: rgb(5,5,5); stroke-width: 0; stroke-dasharray: none; stroke-linecap: butt; stroke-dashoffset: 0; stroke-linejoin: miter; stroke-miterlimit: 4; fill: rgb(227,227,227); fill-rule: nonzero; opacity: 1;"  transform=" translate(0, 0)" d="M 0 -3.70615 C 2.0458 -3.70615 3.70615 -2.04579 3.70615 0 C 3.70615 2.0458 2.04579 3.70615 0 3.70615 C -2.0458 3.70615 -3.70615 2.04579 -3.70615 0 C -3.70615 -2.0458 -2.04579 -3.70615 0 -3.70615 z" stroke-linecap="round" />
</g>
<g transform="matrix(0.5487136376 -0.7281675914 0.6302720934 0.4749440887 72.0228004742 30.9273995396)" id="-ES8FfkJJAnJSehGUiXRC"  >
<path style="stroke: rgb(5,5,5); stroke-width: 0; stroke-dasharray: none; stroke-linecap: butt; stroke-dashoffset: 0; stroke-linejoin: miter; stroke-miterlimit: 4; fill: rgb(103,93,85); fill-rule: nonzero; opacity: 1;"  transform=" translate(0, 0)" d="M 0 -3.70615 C 2.0458 -3.70615 3.70615 -2.04579 3.70615 0 C 3.70615 2.0458 2.04579 3.70615 0 3.70615 C -2.0458 3.70615 -3.70615 2.04579 -3.70615 0 C -3.70615 -2.0458 -2.04579 -3.70615 0 -3.70615 z" stroke-linecap="round" />
</g>
<g transform="matrix(-0.5347457496 -0.5514496992 0.1220680758 -0.117384676 70.7487824232 29.9673580774)" id="Mnbqk-OAuO19fVfdD1oa7"  >
<path style="stroke: rgb(5,5,5); stroke-width: 0; stroke-dasharray: none; stroke-linecap: butt; stroke-dashoffset: 0; stroke-linejoin: miter; stroke-miterlimit: 4; fill: rgb(227,227,227); fill-rule: nonzero; opacity: 1;"  transform=" translate(0, 0)" d="M 0 -3.70615 C 2.0458 -3.70615 3.70615 -2.04579 3.70615 0 C 3.70615 2.0458 2.04579 3.70615 0 3.70615 C -2.0458 3.70615 -3.70615 2.04579 -3.70615 0 C -3.70615 -2.0458 -2.04579 -3.70615 0 -3.70615 z" stroke-linecap="round" />
</g>
<g transform="matrix(0.5487136376 -0.7281675914 0.6302720934 0.4749440887 70.0993386611 47.1775606917)" id="VCxRl2jnBhkdHjJFc_cAz"  >
<path style="stroke: rgb(5,5,5); stroke-width: 0; stroke-dasharray: none; stroke-linecap: butt; stroke-dashoffset: 0; stroke-linejoin: miter; stroke-miterlimit: 4; fill: rgb(103,93,85); fill-rule: nonzero; opacity: 1;"  transform=" translate(0, 0)" d="M 0 -3.70615 C 2.0458 -3.70615 3.70615 -2.04579 3.70615 0 C 3.70615 2.0458 2.04579 3.70615 0 3.70615 C -2.0458 3.70615 -3.70615 2.04579 -3.70615 0 C -3.70615 -2.0458 -2.04579 -3.70615 0 -3.70615 z" stroke-linecap="round" />
</g>
<g transform="matrix(-0.5347457496 -0.5514496992 0.1220680758 -0.117384676 68.8253206101 46.2175192294)" id="DA0LucTcwBET7ApRTPZlb"  >
<path style="stroke: rgb(5,5,5); stroke-width: 0; stroke-dasharray: none; stroke-linecap: butt; stroke-dashoffset: 0; stroke-linejoin: miter; stroke-miterlimit: 4; fill: rgb(227,227,227); fill-rule: nonzero; opacity: 1;"  transform=" translate(0, 0)" d="M 0 -3.70615 C 2.0458 -3.70615 3.70615 -2.04579 3.70615 0 C 3.70615 2.0458 2.04579 3.70615 0 3.70615 C -2.0458 3.70615 -3.70615 2.04579 -3.70615 0 C -3.70615 -2.0458 -2.04579 -3.70615 0 -3.70615 z" stroke-linecap="round" />
</g>
<g transform="matrix(0.5487136376 -0.7281675914 0.6302720934 0.4749440887 68.9091256775 62.7104593989)" id="Y-c7-xXDuqrF66g0pwNWk"  >
<path style="stroke: rgb(5,5,5); stroke-width: 0; stroke-dasharray: none; stroke-linecap: butt; stroke-dashoffset: 0; stroke-linejoin: miter; stroke-miterlimit: 4; fill: rgb(103,93,85); fill-rule: nonzero; opacity: 1;"  transform=" translate(0, 0)" d="M 0 -3.70615 C 2.0458 -3.70615 3.70615 -2.04579 3.70615 0 C 3.70615 2.0458 2.04579 3.70615 0 3.70615 C -2.0458 3.70615 -3.70615 2.04579 -3.70615 0 C -3.70615 -2.0458 -2.04579 -3.70615 0 -3.70615 z" stroke-linecap="round" />
</g>
<g transform="matrix(-0.5347457496 -0.5514496992 0.1220680758 -0.117384676 67.6351076265 61.7504179367)" id="s5G9BTU75lV9KD4H8R9G-"  >
<path style="stroke: rgb(5,5,5); stroke-width: 0; stroke-dasharray: none; stroke-linecap: butt; stroke-dashoffset: 0; stroke-linejoin: miter; stroke-miterlimit: 4; fill: rgb(227,227,227); fill-rule: nonzero; opacity: 1;"  transform=" translate(0, 0)" d="M 0 -3.70615 C 2.0458 -3.70615 3.70615 -2.04579 3.70615 0 C 3.70615 2.0458 2.04579 3.70615 0 3.70615 C -2.0458 3.70615 -3.70615 2.04579 -3.70615 0 C -3.70615 -2.0458 -2.04579 -3.70615 0 -3.70615 z" stroke-linecap="round" />
</g>
<g transform="matrix(0.5487136376 -0.7281675914 0.6302720934 0.4749440887 48.7989082136 64.3763003395)" id="a_P7HLtGm4N6yOHbBT0Xq"  >
<path style="stroke: rgb(5,5,5); stroke-width: 0; stroke-dasharray: none; stroke-linecap: butt; stroke-dashoffset: 0; stroke-linejoin: miter; stroke-miterlimit: 4; fill: rgb(103,93,85); fill-rule: nonzero; opacity: 1;"  transform=" translate(0, 0)" d="M 0 -3.70615 C 2.0458 -3.70615 3.70615 -2.04579 3.70615 0 C 3.70615 2.0458 2.04579 3.70615 0 3.70615 C -2.0458 3.70615 -3.70615 2.04579 -3.70615 0 C -3.70615 -2.0458 -2.04579 -3.70615 0 -3.70615 z" stroke-linecap="round" />
</g>
<g transform="matrix(-0.5347457496 -0.5514496992 0.1220680758 -0.117384676 47.5248901626 63.4162588773)" id="QCaSvymeQZgbgSm0Tyzt6"  >
<path style="stroke: rgb(5,5,5); stroke-width: 0; stroke-dasharray: none; stroke-linecap: butt; stroke-dashoffset: 0; stroke-linejoin: miter; stroke-miterlimit: 4; fill: rgb(227,227,227); fill-rule: nonzero; opacity: 1;"  transform=" translate(0, 0)" d="M 0 -3.70615 C 2.0458 -3.70615 3.70615 -2.04579 3.70615 0 C 3.70615 2.0458 2.04579 3.70615 0 3.70615 C -2.0458 3.70615 -3.70615 2.04579 -3.70615 0 C -3.70615 -2.0458 -2.04579 -3.70615 0 -3.70615 z" stroke-linecap="round" />
</g>
<g transform="matrix(0.5487136376 -0.7281675914 0.6302720934 0.4749440887 50.2504225059 48.6501180543)" id="8ALuXMMGGS6MkVbdr4YUl"  >
<path style="stroke: rgb(5,5,5); stroke-width: 0; stroke-dasharray: none; stroke-linecap: butt; stroke-dashoffset: 0; stroke-linejoin: miter; stroke-miterlimit: 4; fill: rgb(103,93,85); fill-rule: nonzero; opacity: 1;"  transform=" translate(0, 0)" d="M 0 -3.70615 C 2.0458 -3.70615 3.70615 -2.04579 3.70615 0 C 3.70615 2.0458 2.04579 3.70615 0 3.70615 C -2.0458 3.70615 -3.70615 2.04579 -3.70615 0 C -3.70615 -2.0458 -2.04579 -3.70615 0 -3.70615 z" stroke-linecap="round" />
</g>
<g transform="matrix(-0.5347457496 -0.5514496992 0.1220680758 -0.117384676 48.9764044549 47.690076592)" id="njku47wwWxYo9iNUpYlkR"  >
<path style="stroke: rgb(5,5,5); stroke-width: 0; stroke-dasharray: none; stroke-linecap: butt; stroke-dashoffset: 0; stroke-linejoin: miter; stroke-miterlimit: 4; fill: rgb(227,227,227); fill-rule: nonzero; opacity: 1;"  transform=" translate(0, 0)" d="M 0 -3.70615 C 2.0458 -3.70615 3.70615 -2.04579 3.70615 0 C 3.70615 2.0458 2.04579 3.70615 0 3.70615 C -2.0458 3.70615 -3.70615 2.04579 -3.70615 0 C -3.70615 -2.0458 -2.04579 -3.70615 0 -3.70615 z" stroke-linecap="round" />
</g>
<g transform="matrix(1.0639013656 -1.0599171893 0.8236813736 0.8206365559 63.0295372591 298.7958730748)" id="YjZQHmy_Cu2h6y95KWE-0"  >
<path style="stroke: rgb(5,5,5); stroke-width: 0; stroke-dasharray: none; stroke-linecap: butt; stroke-dashoffset: 0; stroke-linejoin: miter; stroke-miterlimit: 4; fill: rgb(227,227,227); fill-rule: nonzero; opacity: 1;"  transform=" translate(0, 0)" d="M -4.64409 -6.17849 L -5.37758 -4.11899 L 2.745990000000001 6.17849 L 5.37757 5.49199 z" stroke-linecap="round" />
</g>
<g transform="matrix(1.0639013656 -1.0599171893 0.8236813736 0.8206365559 62.9175755501 285.0021609247)" id="B9bn01qszUBc_qvdejW7-"  >
<path style="stroke: rgb(5,5,5); stroke-width: 0; stroke-dasharray: none; stroke-linecap: butt; stroke-dashoffset: 0; stroke-linejoin: miter; stroke-miterlimit: 4; fill: rgb(227,227,227); fill-rule: nonzero; opacity: 1;"  transform=" translate(0, 0)" d="M -4.64409 -6.17849 L -5.37758 -4.11899 L 2.745990000000001 6.17849 L 5.37757 5.49199 z" stroke-linecap="round" />
</g>
<g transform="matrix(0.6905158697 -0.9163455092 0.9288218387 0.6999174584 61.5295881003 270.7071601203)" id="9Y9aq-feEjx6INYqf9yA_"  >
<path style="stroke: rgb(5,5,5); stroke-width: 0; stroke-dasharray: none; stroke-linecap: butt; stroke-dashoffset: 0; stroke-linejoin: miter; stroke-miterlimit: 4; fill: rgb(227,227,227); fill-rule: nonzero; opacity: 1;"  transform=" translate(0, 0)" d="M -4.09092 -3.16369 L -5.20595 -2.10038 L 0.6292900000000001 6.273990000000001 C 0.6292900000000001 6.273990000000001 0.8529400000000001 5.444230000000001 1.9971 5.167650000000001 C 3.14126 4.891060000000001 5.20594 5.167650000000001 5.20594 5.167650000000001 L -3.6041299999999996 -6.273999999999998 z" stroke-linecap="round" />
</g>
<g transform="matrix(0.6905158697 -0.9163455092 0.9288218387 0.6999174584 60.5984754107 245.9401949433)" id="YFpnbQovJeGjl5ath63u_"  >
<path style="stroke: rgb(5,5,5); stroke-width: 0; stroke-dasharray: none; stroke-linecap: butt; stroke-dashoffset: 0; stroke-linejoin: miter; stroke-miterlimit: 4; fill: rgb(227,227,227); fill-rule: nonzero; opacity: 1;"  transform=" translate(0, 0)" d="M -4.09092 -3.16369 L -5.20595 -2.10038 L 0.6292900000000001 6.273990000000001 C 0.6292900000000001 6.273990000000001 0.8529400000000001 5.444230000000001 1.9971 5.167650000000001 C 3.14126 4.891060000000001 5.20594 5.167650000000001 5.20594 5.167650000000001 L -3.6041299999999996 -6.273999999999998 z" stroke-linecap="round" />
</g>
<g transform="matrix(0.9666229043 -1.0336395641 0.8515550928 0.7918674252 59.673817512 214.9735702906)" id="JFEAQ5BYLGdbnj7HtReZW"  >
<path style="stroke: rgb(5,5,5); stroke-width: 0; stroke-dasharray: none; stroke-linecap: butt; stroke-dashoffset: 0; stroke-linejoin: miter; stroke-miterlimit: 4; fill: rgb(227,227,227); fill-rule: nonzero; opacity: 1;"  transform=" translate(0, 0)" d="M -4.09092 -3.16369 L -5.20595 -2.10038 L 0.6292900000000001 6.273990000000001 C 0.6292900000000001 6.273990000000001 0.8529400000000001 5.444230000000001 1.9971 5.167650000000001 C 3.14126 4.891060000000001 5.20594 5.167650000000001 5.20594 5.167650000000001 L -3.6041299999999996 -6.273999999999998 z" stroke-linecap="round" />
</g>
<g transform="matrix(0.9666229043 -1.0336395641 0.8515550928 0.7918674252 58.9363597218 192.1607212674)" id="fcCQfIsp-0meUcT5ymir0"  >
<path style="stroke: rgb(5,5,5); stroke-width: 0; stroke-dasharray: none; stroke-linecap: butt; stroke-dashoffset: 0; stroke-linejoin: miter; stroke-miterlimit: 4; fill: rgb(227,227,227); fill-rule: nonzero; opacity: 1;"  transform=" translate(0, 0)" d="M -4.09092 -3.16369 L -5.20595 -2.10038 L 0.6292900000000001 6.273990000000001 C 0.6292900000000001 6.273990000000001 0.8529400000000001 5.444230000000001 1.9971 5.167650000000001 C 3.14126 4.891060000000001 5.20594 5.167650000000001 5.20594 5.167650000000001 L -3.6041299999999996 -6.273999999999998 z" stroke-linecap="round" />
</g>
<g transform="matrix(0.6905158697 -0.9163455092 0.9288218387 0.6999174584 58.1373037563 165.5619675621)" id="KyUgnBN6NeZUzpgLnW8Og"  >
<path style="stroke: rgb(5,5,5); stroke-width: 0; stroke-dasharray: none; stroke-linecap: butt; stroke-dashoffset: 0; stroke-linejoin: miter; stroke-miterlimit: 4; fill: rgb(227,227,227); fill-rule: nonzero; opacity: 1;"  transform=" translate(0, 0)" d="M -5.72082 0 L -3.4811699999999997 -2.12495 L -1.7162399999999995 -6.17849 L 5.720830000000001 2.7460000000000004 C 5.720830000000001 2.7460000000000004 3.142920000000001 2.9766900000000005 1.5124900000000014 3.8348200000000006 C -0.1179399999999986 4.69294 -0.8009099999999987 6.1785000000000005 -0.8009099999999987 6.1785000000000005 z" stroke-linecap="round" />
</g>
<g transform="matrix(0.7225106408 -0.8913605292 0.9041573692 0.7314710847 57.927762757 136.0785661052)" id="uddXkNPlybVHa8vp49wS8"  >
<path style="stroke: rgb(5,5,5); stroke-width: 0; stroke-dasharray: none; stroke-linecap: butt; stroke-dashoffset: 0; stroke-linejoin: miter; stroke-miterlimit: 4; fill: rgb(227,227,227); fill-rule: nonzero; opacity: 1;"  transform=" translate(0, 0)" d="M -5.72082 0 L -3.4811699999999997 -2.12495 L -1.7162399999999995 -6.17849 L 5.720830000000001 2.7460000000000004 C 5.720830000000001 2.7460000000000004 3.142920000000001 2.9766900000000005 1.5124900000000014 3.8348200000000006 C -0.1179399999999986 4.69294 -0.8009099999999987 6.1785000000000005 -0.8009099999999987 6.1785000000000005 z" stroke-linecap="round" />
</g>
<g transform="matrix(0.6905158697 -0.9163455092 0.9288218387 0.6999174584 52.4708060313 243.6002674897)" id="pxG-2CaP3CW_Pul0iGIsc"  >
<path style="stroke: rgb(255,255,255); stroke-width: 1; stroke-dasharray: none; stroke-linecap: butt; stroke-dashoffset: 0; stroke-linejoin: miter; stroke-miterlimit: 4; fill: rgb(255,255,255); fill-opacity: 0; fill-rule: nonzero; opacity: 1;"  transform=" translate(0, 0)" d="M -122.82219 95.49165 L -112.85286 83.96769 L -93.27052 69.21942 L -36.92649000000001 26.78438 L 28.587929999999993 -23.42528 L 102.14757 -79.80073 L 122.82219 -95.49163" stroke-linecap="round" />
</g>
<g transform="matrix(0.6905158697 -0.9163455092 0.9288218387 0.6999174584 73.4781706982 243.4998936053)" id="MADNrgbh1G1GwfsuC715l"  >
<path style="stroke: rgb(255,255,255); stroke-width: 1; stroke-dasharray: none; stroke-linecap: butt; stroke-dashoffset: 0; stroke-linejoin: miter; stroke-miterlimit: 4; fill: rgb(255,255,255); fill-opacity: 0; fill-rule: nonzero; opacity: 1;"  transform=" translate(0, 0)" d="M -123.44127 95.92374 L -113.47194 84.39977999999999 L -93.8896 69.65150999999999 L -59.07685 43.02656999999999 L 100.34925999999999 -83.45394 L 123.44127999999999 -95.92374000000001" stroke-linecap="round" />
</g>
<g transform="matrix(0.6905158697 -0.9163455092 0.9288218387 0.6999174584 71.6163240481 235.5674528585)" id="dDQeT4hi2yTpVfuEcj0j8"  >
<path style="stroke: rgb(255,255,255); stroke-width: 1; stroke-dasharray: none; stroke-linecap: butt; stroke-dashoffset: 0; stroke-linejoin: miter; stroke-miterlimit: 4; fill: rgb(255,255,255); fill-opacity: 0; fill-rule: nonzero; opacity: 1;"  transform=" translate(0, 0)" d="M -129.40922 98.52649 L -119.43989 87.00253 L -99.85755 72.25425999999999 L -65.04480000000001 45.62931999999999 L 94.38130999999998 -80.85119 L 115.95141999999998 -91.3061 L 129.40921999999998 -98.52648" stroke-linecap="round" />
</g>
<g transform="matrix(0.6905158697 -0.9163455092 0.9288218387 0.6999174584 69.9460946789 226.9889377933)" id="gGdLaGhfbXth52cig9nb-"  >
<path style="stroke: rgb(255,255,255); stroke-width: 1; stroke-dasharray: none; stroke-linecap: butt; stroke-dashoffset: 0; stroke-linejoin: miter; stroke-miterlimit: 4; fill: rgb(255,255,255); fill-opacity: 0; fill-rule: nonzero; opacity: 1;"  transform=" translate(0, 0)" d="M -136.63396 100.03936 L -126.66463 88.5154 L -107.08229 73.76713 L -72.26954 47.14219 L 88.33580999999998 -78.39492 L 120.28327999999998 -96.1528 L 136.63395999999997 -100.03934" stroke-linecap="round" />
</g>
<g transform="matrix(0.6905158697 -0.9163455092 0.9288218387 0.6999174584 54.9325059125 235.7146328883)" id="5Tqx3ijQtueYWysLygBhL"  >
<path style="stroke: rgb(255,255,255); stroke-width: 1; stroke-dasharray: none; stroke-linecap: butt; stroke-dashoffset: 0; stroke-linejoin: miter; stroke-miterlimit: 4; fill: rgb(255,255,255); fill-opacity: 0; fill-rule: nonzero; opacity: 1;"  transform=" translate(0, 0)" d="M -127.74973 100.01412 L -117.7804 88.49016 L -98.19806 73.74189 L -41.85403 31.306849999999997 L 97.25989000000001 -75.51549 C 97.25989000000001 -75.51549 120.77514000000002 -94.6887 127.74973000000001 -100.01411" stroke-linecap="round" />
</g>
<g transform="matrix(0.6905158697 -0.9163455092 0.9288218387 0.6999174584 56.5568483732 228.0869635498)" id="ykctxkb4o5l8CJdpRiWox"  >
<path style="stroke: rgb(255,255,255); stroke-width: 1; stroke-dasharray: none; stroke-linecap: butt; stroke-dashoffset: 0; stroke-linejoin: miter; stroke-miterlimit: 4; fill: rgb(255,255,255); fill-opacity: 0; fill-rule: nonzero; opacity: 1;"  transform=" translate(0, 0)" d="M -132.10127 104.47811 L -122.13194 92.95415 L -102.5496 78.20588 L -46.20557 35.77083999999999 L 90.96612000000002 -69.56011000000001 L 92.90835000000001 -71.0515 C 92.90835000000001 -71.0515 93.81499000000001 -71.84228 95.35702 -73.18368000000001 C 103.00732 -79.83861000000002 126.29669000000001 -100.04604 132.10128 -104.47811000000002" stroke-linecap="round" />
</g>
</svg>